<svg width="1878" height="1500" viewBox="0 0 1878 1500" fill="none" xmlns="http://www.w3.org/2000/svg">
	<g filter="url(#filter0_f_0_1)">
		<path d="M769.859 550.077C769.859 628.249 707.444 691.62 630.451 691.62C553.458 691.62 491.042 628.249 491.042 550.077C491.042 471.906 553.458 408.535 630.451 408.535C707.444 408.535 769.859 471.906 769.859 550.077Z" fill="#C22280" />
		<path d="M577.817 481.796C577.817 526.97 538.011 563.592 488.908 563.592C439.806 563.592 400 526.97 400 481.796C400 436.621 439.806 400 488.908 400C538.011 400 577.817 436.621 577.817 481.796Z" fill="#1EF7D0" />
		<path d="M1477.86 958.077C1477.86 1036.25 1415.44 1099.62 1338.45 1099.62C1261.46 1099.62 1199.04 1036.25 1199.04 958.077C1199.04 879.906 1261.46 816.535 1338.45 816.535C1415.44 816.535 1477.86 879.906 1477.86 958.077Z" fill="#C22280" />
		<path d="M1285.82 889.796C1285.82 934.97 1246.01 971.592 1196.91 971.592C1147.81 971.592 1108 934.97 1108 889.796C1108 844.621 1147.81 808 1196.91 808C1246.01 808 1285.82 844.621 1285.82 889.796Z" fill="#1EF7D0" />
	</g>
	<path d="M875 429.4H864M875 429.4L872.556 431.8M875 429.4L872.556 427M864 436.6H875M864 436.6L866.444 439M864 436.6L866.444 434.2" stroke="#FF8CD0" stroke-opacity="0.1" stroke-linecap="round" stroke-linejoin="round" />
	<path d="M987 499.4H976M987 499.4L984.556 501.8M987 499.4L984.556 497M976 506.6H987M976 506.6L978.444 509M976 506.6L978.444 504.2" stroke="#FF8CD0" stroke-opacity="0.1" stroke-linecap="round" stroke-linejoin="round" />
	<path d="M1052 403.4H1041M1052 403.4L1049.56 405.8M1052 403.4L1049.56 401M1041 410.6H1052M1041 410.6L1043.44 413M1041 410.6L1043.44 408.2" stroke="#FF8CD0" stroke-opacity="0.1" stroke-linecap="round" stroke-linejoin="round" />
	<path d="M1153 493.4H1142M1153 493.4L1150.56 495.8M1153 493.4L1150.56 491M1142 500.6H1153M1142 500.6L1144.44 503M1142 500.6L1144.44 498.2" stroke="#FF8CD0" stroke-opacity="0.1" stroke-linecap="round" stroke-linejoin="round" />
	<path d="M1085 586.4H1074M1085 586.4L1082.56 588.8M1085 586.4L1082.56 584M1074 593.6H1085M1074 593.6L1076.44 596M1074 593.6L1076.44 591.2" stroke="#FF8CD0" stroke-opacity="0.1" stroke-linecap="round" stroke-linejoin="round" />
	<path d="M904 586.4H893M904 586.4L901.556 588.8M904 586.4L901.556 584M893 593.6H904M893 593.6L895.444 596M893 593.6L895.444 591.2" stroke="#FF8CD0" stroke-opacity="0.1" stroke-linecap="round" stroke-linejoin="round" />
	<path d="M817 513.4H806M817 513.4L814.556 515.8M817 513.4L814.556 511M806 520.6H817M806 520.6L808.444 523M806 520.6L808.444 518.2" stroke="#FF8CD0" stroke-opacity="0.1" stroke-linecap="round" stroke-linejoin="round" />
	<path d="M838 450.2H827M838 450.2L835.556 452.4M838 450.2L835.556 448M827 456.8H838M827 456.8L829.444 459M827 456.8L829.444 454.6" stroke="#FF8CD0" stroke-opacity="0.1" stroke-linecap="round" stroke-linejoin="round" />
	<path d="M950 520.2H939M950 520.2L947.556 522.4M950 520.2L947.556 518M939 526.8H950M939 526.8L941.444 529M939 526.8L941.444 524.6" stroke="#FF8CD0" stroke-opacity="0.1" stroke-linecap="round" stroke-linejoin="round" />
	<path d="M1015 424.2H1004M1015 424.2L1012.56 426.4M1015 424.2L1012.56 422M1004 430.8H1015M1004 430.8L1006.44 433M1004 430.8L1006.44 428.6" stroke="#FF8CD0" stroke-opacity="0.1" stroke-linecap="round" stroke-linejoin="round" />
	<path d="M1116 514.2H1105M1116 514.2L1113.56 516.4M1116 514.2L1113.56 512M1105 520.8H1116M1105 520.8L1107.44 523M1105 520.8L1107.44 518.6" stroke="#FF8CD0" stroke-opacity="0.1" stroke-linecap="round" stroke-linejoin="round" />
	<path d="M1048 607.2H1037M1048 607.2L1045.56 609.4M1048 607.2L1045.56 605M1037 613.8H1048M1037 613.8L1039.44 616M1037 613.8L1039.44 611.6" stroke="#FF8CD0" stroke-opacity="0.1" stroke-linecap="round" stroke-linejoin="round" />
	<path d="M867 607.2H856M867 607.2L864.556 609.4M867 607.2L864.556 605M856 613.8H867M856 613.8L858.444 616M856 613.8L858.444 611.6" stroke="#FF8CD0" stroke-opacity="0.1" stroke-linecap="round" stroke-linejoin="round" />
	<path d="M780 534.2H769M780 534.2L777.556 536.4M780 534.2L777.556 532M769 540.8H780M769 540.8L771.444 543M769 540.8L771.444 538.6" stroke="#FF8CD0" stroke-opacity="0.1" stroke-linecap="round" stroke-linejoin="round" />
	<path d="M856 475.4H845M856 475.4L853.556 477.8M856 475.4L853.556 473M845 482.6H856M845 482.6L847.444 485M845 482.6L847.444 480.2" stroke="#FF8CD0" stroke-opacity="0.1" stroke-linecap="round" stroke-linejoin="round" />
	<path d="M968 545.4H957M968 545.4L965.556 547.8M968 545.4L965.556 543M957 552.6H968M957 552.6L959.444 555M957 552.6L959.444 550.2" stroke="#FF8CD0" stroke-opacity="0.1" stroke-linecap="round" stroke-linejoin="round" />
	<path d="M1033 449.4H1022M1033 449.4L1030.56 451.8M1033 449.4L1030.56 447M1022 456.6H1033M1022 456.6L1024.44 459M1022 456.6L1024.44 454.2" stroke="#FF8CD0" stroke-opacity="0.1" stroke-linecap="round" stroke-linejoin="round" />
	<path d="M1134 539.4H1123M1134 539.4L1131.56 541.8M1134 539.4L1131.56 537M1123 546.6H1134M1123 546.6L1125.44 549M1123 546.6L1125.44 544.2" stroke="#FF8CD0" stroke-opacity="0.1" stroke-linecap="round" stroke-linejoin="round" />
	<path d="M1066 632.4H1055M1066 632.4L1063.56 634.8M1066 632.4L1063.56 630M1055 639.6H1066M1055 639.6L1057.44 642M1055 639.6L1057.44 637.2" stroke="#FF8CD0" stroke-opacity="0.1" stroke-linecap="round" stroke-linejoin="round" />
	<path d="M885 632.4H874M885 632.4L882.556 634.8M885 632.4L882.556 630M874 639.6H885M874 639.6L876.444 642M874 639.6L876.444 637.2" stroke="#FF8CD0" stroke-opacity="0.1" stroke-linecap="round" stroke-linejoin="round" />
	<path d="M798 559.4H787M798 559.4L795.556 561.8M798 559.4L795.556 557M787 566.6H798M787 566.6L789.444 569M787 566.6L789.444 564.2" stroke="#FF8CD0" stroke-opacity="0.1" stroke-linecap="round" stroke-linejoin="round" />
	<path d="M903 463.4H892M903 463.4L900.556 465.8M903 463.4L900.556 461M892 470.6H903M892 470.6L894.444 473M892 470.6L894.444 468.2" stroke="#FF8CD0" stroke-opacity="0.1" stroke-linecap="round" stroke-linejoin="round" />
	<path d="M1015 533.4H1004M1015 533.4L1012.56 535.8M1015 533.4L1012.56 531M1004 540.6H1015M1004 540.6L1006.44 543M1004 540.6L1006.44 538.2" stroke="#FF8CD0" stroke-opacity="0.1" stroke-linecap="round" stroke-linejoin="round" />
	<path d="M1080 437.4H1069M1080 437.4L1077.56 439.8M1080 437.4L1077.56 435M1069 444.6H1080M1069 444.6L1071.44 447M1069 444.6L1071.44 442.2" stroke="#FF8CD0" stroke-opacity="0.1" stroke-linecap="round" stroke-linejoin="round" />
	<path d="M1181 527.4H1170M1181 527.4L1178.56 529.8M1181 527.4L1178.56 525M1170 534.6H1181M1170 534.6L1172.44 537M1170 534.6L1172.44 532.2" stroke="#FF8CD0" stroke-opacity="0.1" stroke-linecap="round" stroke-linejoin="round" />
	<path d="M1113 620.4H1102M1113 620.4L1110.56 622.8M1113 620.4L1110.56 618M1102 627.6H1113M1102 627.6L1104.44 630M1102 627.6L1104.44 625.2" stroke="#FF8CD0" stroke-opacity="0.1" stroke-linecap="round" stroke-linejoin="round" />
	<path d="M932 620.4H921M932 620.4L929.556 622.8M932 620.4L929.556 618M921 627.6H932M921 627.6L923.444 630M921 627.6L923.444 625.2" stroke="#FF8CD0" stroke-opacity="0.1" stroke-linecap="round" stroke-linejoin="round" />
	<path d="M845 547.4H834M845 547.4L842.556 549.8M845 547.4L842.556 545M834 554.6H845M834 554.6L836.444 557M834 554.6L836.444 552.2" stroke="#FF8CD0" stroke-opacity="0.1" stroke-linecap="round" stroke-linejoin="round" />
	<path d="M451 344.4H440M451 344.4L448.556 346.8M451 344.4L448.556 342M440 351.6H451M440 351.6L442.444 354M440 351.6L442.444 349.2" stroke="#FF8CD0" stroke-opacity="0.1" stroke-linecap="round" stroke-linejoin="round" />
	<path d="M563 414.4H552M563 414.4L560.556 416.8M563 414.4L560.556 412M552 421.6H563M552 421.6L554.444 424M552 421.6L554.444 419.2" stroke="#FF8CD0" stroke-opacity="0.1" stroke-linecap="round" stroke-linejoin="round" />
	<path d="M628 318.4H617M628 318.4L625.556 320.8M628 318.4L625.556 316M617 325.6H628M617 325.6L619.444 328M617 325.6L619.444 323.2" stroke="#FF8CD0" stroke-opacity="0.1" stroke-linecap="round" stroke-linejoin="round" />
	<path d="M729 408.4H718M729 408.4L726.556 410.8M729 408.4L726.556 406M718 415.6H729M718 415.6L720.444 418M718 415.6L720.444 413.2" stroke="#FF8CD0" stroke-opacity="0.1" stroke-linecap="round" stroke-linejoin="round" />
	<path d="M661 501.4H650M661 501.4L658.556 503.8M661 501.4L658.556 499M650 508.6H661M650 508.6L652.444 511M650 508.6L652.444 506.2" stroke="#FF8CD0" stroke-opacity="0.1" stroke-linecap="round" stroke-linejoin="round" />
	<path d="M480 501.4H469M480 501.4L477.556 503.8M480 501.4L477.556 499M469 508.6H480M469 508.6L471.444 511M469 508.6L471.444 506.2" stroke="#FF8CD0" stroke-opacity="0.1" stroke-linecap="round" stroke-linejoin="round" />
	<path d="M393 428.4H382M393 428.4L390.556 430.8M393 428.4L390.556 426M382 435.6H393M382 435.6L384.444 438M382 435.6L384.444 433.2" stroke="#FF8CD0" stroke-opacity="0.1" stroke-linecap="round" stroke-linejoin="round" />
	<path d="M414 365.2H403M414 365.2L411.556 367.4M414 365.2L411.556 363M403 371.8H414M403 371.8L405.444 374M403 371.8L405.444 369.6" stroke="#FF8CD0" stroke-opacity="0.1" stroke-linecap="round" stroke-linejoin="round" />
	<path d="M526 435.2H515M526 435.2L523.556 437.4M526 435.2L523.556 433M515 441.8H526M515 441.8L517.444 444M515 441.8L517.444 439.6" stroke="#FF8CD0" stroke-opacity="0.1" stroke-linecap="round" stroke-linejoin="round" />
	<path d="M591 339.2H580M591 339.2L588.556 341.4M591 339.2L588.556 337M580 345.8H591M580 345.8L582.444 348M580 345.8L582.444 343.6" stroke="#FF8CD0" stroke-opacity="0.1" stroke-linecap="round" stroke-linejoin="round" />
	<path d="M692 429.2H681M692 429.2L689.556 431.4M692 429.2L689.556 427M681 435.8H692M681 435.8L683.444 438M681 435.8L683.444 433.6" stroke="#FF8CD0" stroke-opacity="0.1" stroke-linecap="round" stroke-linejoin="round" />
	<path d="M624 522.2H613M624 522.2L621.556 524.4M624 522.2L621.556 520M613 528.8H624M613 528.8L615.444 531M613 528.8L615.444 526.6" stroke="#FF8CD0" stroke-opacity="0.1" stroke-linecap="round" stroke-linejoin="round" />
	<path d="M443 522.2H432M443 522.2L440.556 524.4M443 522.2L440.556 520M432 528.8H443M432 528.8L434.444 531M432 528.8L434.444 526.6" stroke="#FF8CD0" stroke-opacity="0.1" stroke-linecap="round" stroke-linejoin="round" />
	<path d="M356 449.2H345M356 449.2L353.556 451.4M356 449.2L353.556 447M345 455.8H356M345 455.8L347.444 458M345 455.8L347.444 453.6" stroke="#FF8CD0" stroke-opacity="0.1" stroke-linecap="round" stroke-linejoin="round" />
	<path d="M432 390.4H421M432 390.4L429.556 392.8M432 390.4L429.556 388M421 397.6H432M421 397.6L423.444 400M421 397.6L423.444 395.2" stroke="#FF8CD0" stroke-opacity="0.1" stroke-linecap="round" stroke-linejoin="round" />
	<path d="M544 460.4H533M544 460.4L541.556 462.8M544 460.4L541.556 458M533 467.6H544M533 467.6L535.444 470M533 467.6L535.444 465.2" stroke="#FF8CD0" stroke-opacity="0.1" stroke-linecap="round" stroke-linejoin="round" />
	<path d="M609 364.4H598M609 364.4L606.556 366.8M609 364.4L606.556 362M598 371.6H609M598 371.6L600.444 374M598 371.6L600.444 369.2" stroke="#FF8CD0" stroke-opacity="0.1" stroke-linecap="round" stroke-linejoin="round" />
	<path d="M710 454.4H699M710 454.4L707.556 456.8M710 454.4L707.556 452M699 461.6H710M699 461.6L701.444 464M699 461.6L701.444 459.2" stroke="#FF8CD0" stroke-opacity="0.1" stroke-linecap="round" stroke-linejoin="round" />
	<path d="M642 547.4H631M642 547.4L639.556 549.8M642 547.4L639.556 545M631 554.6H642M631 554.6L633.444 557M631 554.6L633.444 552.2" stroke="#FF8CD0" stroke-opacity="0.1" stroke-linecap="round" stroke-linejoin="round" />
	<path d="M461 547.4H450M461 547.4L458.556 549.8M461 547.4L458.556 545M450 554.6H461M450 554.6L452.444 557M450 554.6L452.444 552.2" stroke="#FF8CD0" stroke-opacity="0.1" stroke-linecap="round" stroke-linejoin="round" />
	<path d="M374 474.4H363M374 474.4L371.556 476.8M374 474.4L371.556 472M363 481.6H374M363 481.6L365.444 484M363 481.6L365.444 479.2" stroke="#FF8CD0" stroke-opacity="0.1" stroke-linecap="round" stroke-linejoin="round" />
	<path d="M479 378.4H468M479 378.4L476.556 380.8M479 378.4L476.556 376M468 385.6H479M468 385.6L470.444 388M468 385.6L470.444 383.2" stroke="#FF8CD0" stroke-opacity="0.1" stroke-linecap="round" stroke-linejoin="round" />
	<path d="M591 448.4H580M591 448.4L588.556 450.8M591 448.4L588.556 446M580 455.6H591M580 455.6L582.444 458M580 455.6L582.444 453.2" stroke="#FF8CD0" stroke-opacity="0.1" stroke-linecap="round" stroke-linejoin="round" />
	<path d="M656 352.4H645M656 352.4L653.556 354.8M656 352.4L653.556 350M645 359.6H656M645 359.6L647.444 362M645 359.6L647.444 357.2" stroke="#FF8CD0" stroke-opacity="0.1" stroke-linecap="round" stroke-linejoin="round" />
	<path d="M757 442.4H746M757 442.4L754.556 444.8M757 442.4L754.556 440M746 449.6H757M746 449.6L748.444 452M746 449.6L748.444 447.2" stroke="#FF8CD0" stroke-opacity="0.1" stroke-linecap="round" stroke-linejoin="round" />
	<path d="M689 535.4H678M689 535.4L686.556 537.8M689 535.4L686.556 533M678 542.6H689M678 542.6L680.444 545M678 542.6L680.444 540.2" stroke="#FF8CD0" stroke-opacity="0.1" stroke-linecap="round" stroke-linejoin="round" />
	<path d="M508 535.4H497M508 535.4L505.556 537.8M508 535.4L505.556 533M497 542.6H508M497 542.6L499.444 545M497 542.6L499.444 540.2" stroke="#FF8CD0" stroke-opacity="0.1" stroke-linecap="round" stroke-linejoin="round" />
	<path d="M421 462.4H410M421 462.4L418.556 464.8M421 462.4L418.556 460M410 469.6H421M410 469.6L412.444 472M410 469.6L412.444 467.2" stroke="#FF8CD0" stroke-opacity="0.1" stroke-linecap="round" stroke-linejoin="round" />
	<path d="M446 597.4H435M446 597.4L443.556 599.8M446 597.4L443.556 595M435 604.6H446M435 604.6L437.444 607M435 604.6L437.444 602.2" stroke="#FF8CD0" stroke-opacity="0.1" stroke-linecap="round" stroke-linejoin="round" />
	<path d="M558 667.4H547M558 667.4L555.556 669.8M558 667.4L555.556 665M547 674.6H558M547 674.6L549.444 677M547 674.6L549.444 672.2" stroke="#FF8CD0" stroke-opacity="0.1" stroke-linecap="round" stroke-linejoin="round" />
	<path d="M623 571.4H612M623 571.4L620.556 573.8M623 571.4L620.556 569M612 578.6H623M612 578.6L614.444 581M612 578.6L614.444 576.2" stroke="#FF8CD0" stroke-opacity="0.1" stroke-linecap="round" stroke-linejoin="round" />
	<path d="M724 661.4H713M724 661.4L721.556 663.8M724 661.4L721.556 659M713 668.6H724M713 668.6L715.444 671M713 668.6L715.444 666.2" stroke="#FF8CD0" stroke-opacity="0.1" stroke-linecap="round" stroke-linejoin="round" />
	<path d="M656 754.4H645M656 754.4L653.556 756.8M656 754.4L653.556 752M645 761.6H656M645 761.6L647.444 764M645 761.6L647.444 759.2" stroke="#FF8CD0" stroke-opacity="0.1" stroke-linecap="round" stroke-linejoin="round" />
	<path d="M475 754.4H464M475 754.4L472.556 756.8M475 754.4L472.556 752M464 761.6H475M464 761.6L466.444 764M464 761.6L466.444 759.2" stroke="#FF8CD0" stroke-opacity="0.1" stroke-linecap="round" stroke-linejoin="round" />
	<path d="M388 681.4H377M388 681.4L385.556 683.8M388 681.4L385.556 679M377 688.6H388M377 688.6L379.444 691M377 688.6L379.444 686.2" stroke="#FF8CD0" stroke-opacity="0.1" stroke-linecap="round" stroke-linejoin="round" />
	<path d="M409 618.2H398M409 618.2L406.556 620.4M409 618.2L406.556 616M398 624.8H409M398 624.8L400.444 627M398 624.8L400.444 622.6" stroke="#FF8CD0" stroke-opacity="0.1" stroke-linecap="round" stroke-linejoin="round" />
	<path d="M521 688.2H510M521 688.2L518.556 690.4M521 688.2L518.556 686M510 694.8H521M510 694.8L512.444 697M510 694.8L512.444 692.6" stroke="#FF8CD0" stroke-opacity="0.1" stroke-linecap="round" stroke-linejoin="round" />
	<path d="M586 592.2H575M586 592.2L583.556 594.4M586 592.2L583.556 590M575 598.8H586M575 598.8L577.444 601M575 598.8L577.444 596.6" stroke="#FF8CD0" stroke-opacity="0.1" stroke-linecap="round" stroke-linejoin="round" />
	<path d="M687 682.2H676M687 682.2L684.556 684.4M687 682.2L684.556 680M676 688.8H687M676 688.8L678.444 691M676 688.8L678.444 686.6" stroke="#FF8CD0" stroke-opacity="0.1" stroke-linecap="round" stroke-linejoin="round" />
	<path d="M619 775.2H608M619 775.2L616.556 777.4M619 775.2L616.556 773M608 781.8H619M608 781.8L610.444 784M608 781.8L610.444 779.6" stroke="#FF8CD0" stroke-opacity="0.1" stroke-linecap="round" stroke-linejoin="round" />
	<path d="M438 775.2H427M438 775.2L435.556 777.4M438 775.2L435.556 773M427 781.8H438M427 781.8L429.444 784M427 781.8L429.444 779.6" stroke="#FF8CD0" stroke-opacity="0.1" stroke-linecap="round" stroke-linejoin="round" />
	<path d="M351 702.2H340M351 702.2L348.556 704.4M351 702.2L348.556 700M340 708.8H351M340 708.8L342.444 711M340 708.8L342.444 706.6" stroke="#FF8CD0" stroke-opacity="0.1" stroke-linecap="round" stroke-linejoin="round" />
	<path d="M427 643.4H416M427 643.4L424.556 645.8M427 643.4L424.556 641M416 650.6H427M416 650.6L418.444 653M416 650.6L418.444 648.2" stroke="#FF8CD0" stroke-opacity="0.1" stroke-linecap="round" stroke-linejoin="round" />
	<path d="M539 713.4H528M539 713.4L536.556 715.8M539 713.4L536.556 711M528 720.6H539M528 720.6L530.444 723M528 720.6L530.444 718.2" stroke="#FF8CD0" stroke-opacity="0.1" stroke-linecap="round" stroke-linejoin="round" />
	<path d="M604 617.4H593M604 617.4L601.556 619.8M604 617.4L601.556 615M593 624.6H604M593 624.6L595.444 627M593 624.6L595.444 622.2" stroke="#FF8CD0" stroke-opacity="0.1" stroke-linecap="round" stroke-linejoin="round" />
	<path d="M705 707.4H694M705 707.4L702.556 709.8M705 707.4L702.556 705M694 714.6H705M694 714.6L696.444 717M694 714.6L696.444 712.2" stroke="#FF8CD0" stroke-opacity="0.1" stroke-linecap="round" stroke-linejoin="round" />
	<path d="M637 800.4H626M637 800.4L634.556 802.8M637 800.4L634.556 798M626 807.6H637M626 807.6L628.444 810M626 807.6L628.444 805.2" stroke="#FF8CD0" stroke-opacity="0.1" stroke-linecap="round" stroke-linejoin="round" />
	<path d="M456 800.4H445M456 800.4L453.556 802.8M456 800.4L453.556 798M445 807.6H456M445 807.6L447.444 810M445 807.6L447.444 805.2" stroke="#FF8CD0" stroke-opacity="0.1" stroke-linecap="round" stroke-linejoin="round" />
	<path d="M369 727.4H358M369 727.4L366.556 729.8M369 727.4L366.556 725M358 734.6H369M358 734.6L360.444 737M358 734.6L360.444 732.2" stroke="#FF8CD0" stroke-opacity="0.1" stroke-linecap="round" stroke-linejoin="round" />
	<path d="M474 631.4H463M474 631.4L471.556 633.8M474 631.4L471.556 629M463 638.6H474M463 638.6L465.444 641M463 638.6L465.444 636.2" stroke="#FF8CD0" stroke-opacity="0.1" stroke-linecap="round" stroke-linejoin="round" />
	<path d="M586 701.4H575M586 701.4L583.556 703.8M586 701.4L583.556 699M575 708.6H586M575 708.6L577.444 711M575 708.6L577.444 706.2" stroke="#FF8CD0" stroke-opacity="0.1" stroke-linecap="round" stroke-linejoin="round" />
	<path d="M651 605.4H640M651 605.4L648.556 607.8M651 605.4L648.556 603M640 612.6H651M640 612.6L642.444 615M640 612.6L642.444 610.2" stroke="#FF8CD0" stroke-opacity="0.1" stroke-linecap="round" stroke-linejoin="round" />
	<path d="M752 695.4H741M752 695.4L749.556 697.8M752 695.4L749.556 693M741 702.6H752M741 702.6L743.444 705M741 702.6L743.444 700.2" stroke="#FF8CD0" stroke-opacity="0.1" stroke-linecap="round" stroke-linejoin="round" />
	<path d="M684 788.4H673M684 788.4L681.556 790.8M684 788.4L681.556 786M673 795.6H684M673 795.6L675.444 798M673 795.6L675.444 793.2" stroke="#FF8CD0" stroke-opacity="0.1" stroke-linecap="round" stroke-linejoin="round" />
	<path d="M503 788.4H492M503 788.4L500.556 790.8M503 788.4L500.556 786M492 795.6H503M492 795.6L494.444 798M492 795.6L494.444 793.2" stroke="#FF8CD0" stroke-opacity="0.1" stroke-linecap="round" stroke-linejoin="round" />
	<path d="M416 715.4H405M416 715.4L413.556 717.8M416 715.4L413.556 713M405 722.6H416M405 722.6L407.444 725M405 722.6L407.444 720.2" stroke="#FF8CD0" stroke-opacity="0.1" stroke-linecap="round" stroke-linejoin="round" />
	<path d="M880 699.4H869M880 699.4L877.556 701.8M880 699.4L877.556 697M869 706.6H880M869 706.6L871.444 709M869 706.6L871.444 704.2" stroke="#FF8CD0" stroke-opacity="0.1" stroke-linecap="round" stroke-linejoin="round" />
	<path d="M992 769.4H981M992 769.4L989.556 771.8M992 769.4L989.556 767M981 776.6H992M981 776.6L983.444 779M981 776.6L983.444 774.2" stroke="#FF8CD0" stroke-opacity="0.1" stroke-linecap="round" stroke-linejoin="round" />
	<path d="M1057 673.4H1046M1057 673.4L1054.56 675.8M1057 673.4L1054.56 671M1046 680.6H1057M1046 680.6L1048.44 683M1046 680.6L1048.44 678.2" stroke="#FF8CD0" stroke-opacity="0.1" stroke-linecap="round" stroke-linejoin="round" />
	<path d="M1158 763.4H1147M1158 763.4L1155.56 765.8M1158 763.4L1155.56 761M1147 770.6H1158M1147 770.6L1149.44 773M1147 770.6L1149.44 768.2" stroke="#FF8CD0" stroke-opacity="0.1" stroke-linecap="round" stroke-linejoin="round" />
	<path d="M1090 856.4H1079M1090 856.4L1087.56 858.8M1090 856.4L1087.56 854M1079 863.6H1090M1079 863.6L1081.44 866M1079 863.6L1081.44 861.2" stroke="#FF8CD0" stroke-opacity="0.1" stroke-linecap="round" stroke-linejoin="round" />
	<path d="M909 856.4H898M909 856.4L906.556 858.8M909 856.4L906.556 854M898 863.6H909M898 863.6L900.444 866M898 863.6L900.444 861.2" stroke="#FF8CD0" stroke-opacity="0.1" stroke-linecap="round" stroke-linejoin="round" />
	<path d="M822 783.4H811M822 783.4L819.556 785.8M822 783.4L819.556 781M811 790.6H822M811 790.6L813.444 793M811 790.6L813.444 788.2" stroke="#FF8CD0" stroke-opacity="0.1" stroke-linecap="round" stroke-linejoin="round" />
	<path d="M843 720.2H832M843 720.2L840.556 722.4M843 720.2L840.556 718M832 726.8H843M832 726.8L834.444 729M832 726.8L834.444 724.6" stroke="#FF8CD0" stroke-opacity="0.1" stroke-linecap="round" stroke-linejoin="round" />
	<path d="M955 790.2H944M955 790.2L952.556 792.4M955 790.2L952.556 788M944 796.8H955M944 796.8L946.444 799M944 796.8L946.444 794.6" stroke="#FF8CD0" stroke-opacity="0.1" stroke-linecap="round" stroke-linejoin="round" />
	<path d="M1020 694.2H1009M1020 694.2L1017.56 696.4M1020 694.2L1017.56 692M1009 700.8H1020M1009 700.8L1011.44 703M1009 700.8L1011.44 698.6" stroke="#FF8CD0" stroke-opacity="0.1" stroke-linecap="round" stroke-linejoin="round" />
	<path d="M1121 784.2H1110M1121 784.2L1118.56 786.4M1121 784.2L1118.56 782M1110 790.8H1121M1110 790.8L1112.44 793M1110 790.8L1112.44 788.6" stroke="#FF8CD0" stroke-opacity="0.1" stroke-linecap="round" stroke-linejoin="round" />
	<path d="M1053 877.2H1042M1053 877.2L1050.56 879.4M1053 877.2L1050.56 875M1042 883.8H1053M1042 883.8L1044.44 886M1042 883.8L1044.44 881.6" stroke="#FF8CD0" stroke-opacity="0.1" stroke-linecap="round" stroke-linejoin="round" />
	<path d="M872 877.2H861M872 877.2L869.556 879.4M872 877.2L869.556 875M861 883.8H872M861 883.8L863.444 886M861 883.8L863.444 881.6" stroke="#FF8CD0" stroke-opacity="0.1" stroke-linecap="round" stroke-linejoin="round" />
	<path d="M785 804.2H774M785 804.2L782.556 806.4M785 804.2L782.556 802M774 810.8H785M774 810.8L776.444 813M774 810.8L776.444 808.6" stroke="#FF8CD0" stroke-opacity="0.1" stroke-linecap="round" stroke-linejoin="round" />
	<path d="M861 745.4H850M861 745.4L858.556 747.8M861 745.4L858.556 743M850 752.6H861M850 752.6L852.444 755M850 752.6L852.444 750.2" stroke="#FF8CD0" stroke-opacity="0.1" stroke-linecap="round" stroke-linejoin="round" />
	<path d="M973 815.4H962M973 815.4L970.556 817.8M973 815.4L970.556 813M962 822.6H973M962 822.6L964.444 825M962 822.6L964.444 820.2" stroke="#FF8CD0" stroke-opacity="0.1" stroke-linecap="round" stroke-linejoin="round" />
	<path d="M1038 719.4H1027M1038 719.4L1035.56 721.8M1038 719.4L1035.56 717M1027 726.6H1038M1027 726.6L1029.44 729M1027 726.6L1029.44 724.2" stroke="#FF8CD0" stroke-opacity="0.1" stroke-linecap="round" stroke-linejoin="round" />
	<path d="M1139 809.4H1128M1139 809.4L1136.56 811.8M1139 809.4L1136.56 807M1128 816.6H1139M1128 816.6L1130.44 819M1128 816.6L1130.44 814.2" stroke="#FF8CD0" stroke-opacity="0.1" stroke-linecap="round" stroke-linejoin="round" />
	<path d="M1071 902.4H1060M1071 902.4L1068.56 904.8M1071 902.4L1068.56 900M1060 909.6H1071M1060 909.6L1062.44 912M1060 909.6L1062.44 907.2" stroke="#FF8CD0" stroke-opacity="0.1" stroke-linecap="round" stroke-linejoin="round" />
	<path d="M890 902.4H879M890 902.4L887.556 904.8M890 902.4L887.556 900M879 909.6H890M879 909.6L881.444 912M879 909.6L881.444 907.2" stroke="#FF8CD0" stroke-opacity="0.1" stroke-linecap="round" stroke-linejoin="round" />
	<path d="M803 829.4H792M803 829.4L800.556 831.8M803 829.4L800.556 827M792 836.6H803M792 836.6L794.444 839M792 836.6L794.444 834.2" stroke="#FF8CD0" stroke-opacity="0.1" stroke-linecap="round" stroke-linejoin="round" />
	<path d="M908 733.4H897M908 733.4L905.556 735.8M908 733.4L905.556 731M897 740.6H908M897 740.6L899.444 743M897 740.6L899.444 738.2" stroke="#FF8CD0" stroke-opacity="0.1" stroke-linecap="round" stroke-linejoin="round" />
	<path d="M1020 803.4H1009M1020 803.4L1017.56 805.8M1020 803.4L1017.56 801M1009 810.6H1020M1009 810.6L1011.44 813M1009 810.6L1011.44 808.2" stroke="#FF8CD0" stroke-opacity="0.1" stroke-linecap="round" stroke-linejoin="round" />
	<path d="M1085 707.4H1074M1085 707.4L1082.56 709.8M1085 707.4L1082.56 705M1074 714.6H1085M1074 714.6L1076.44 717M1074 714.6L1076.44 712.2" stroke="#FF8CD0" stroke-opacity="0.1" stroke-linecap="round" stroke-linejoin="round" />
	<path d="M1186 797.4H1175M1186 797.4L1183.56 799.8M1186 797.4L1183.56 795M1175 804.6H1186M1175 804.6L1177.44 807M1175 804.6L1177.44 802.2" stroke="#FF8CD0" stroke-opacity="0.1" stroke-linecap="round" stroke-linejoin="round" />
	<path d="M1118 890.4H1107M1118 890.4L1115.56 892.8M1118 890.4L1115.56 888M1107 897.6H1118M1107 897.6L1109.44 900M1107 897.6L1109.44 895.2" stroke="#FF8CD0" stroke-opacity="0.1" stroke-linecap="round" stroke-linejoin="round" />
	<path d="M937 890.4H926M937 890.4L934.556 892.8M937 890.4L934.556 888M926 897.6H937M926 897.6L928.444 900M926 897.6L928.444 895.2" stroke="#FF8CD0" stroke-opacity="0.1" stroke-linecap="round" stroke-linejoin="round" />
	<path d="M850 817.4H839M850 817.4L847.556 819.8M850 817.4L847.556 815M839 824.6H850M839 824.6L841.444 827M839 824.6L841.444 822.2" stroke="#FF8CD0" stroke-opacity="0.1" stroke-linecap="round" stroke-linejoin="round" />
	<path d="M1314 664.4H1303M1314 664.4L1311.56 666.8M1314 664.4L1311.56 662M1303 671.6H1314M1303 671.6L1305.44 674M1303 671.6L1305.44 669.2" stroke="#FF8CD0" stroke-opacity="0.1" stroke-linecap="round" stroke-linejoin="round" />
	<path d="M1426 734.4H1415M1426 734.4L1423.56 736.8M1426 734.4L1423.56 732M1415 741.6H1426M1415 741.6L1417.44 744M1415 741.6L1417.44 739.2" stroke="#FF8CD0" stroke-opacity="0.1" stroke-linecap="round" stroke-linejoin="round" />
	<path d="M1491 638.4H1480M1491 638.4L1488.56 640.8M1491 638.4L1488.56 636M1480 645.6H1491M1480 645.6L1482.44 648M1480 645.6L1482.44 643.2" stroke="#FF8CD0" stroke-opacity="0.1" stroke-linecap="round" stroke-linejoin="round" />
	<path d="M1592 728.4H1581M1592 728.4L1589.56 730.8M1592 728.4L1589.56 726M1581 735.6H1592M1581 735.6L1583.44 738M1581 735.6L1583.44 733.2" stroke="#FF8CD0" stroke-opacity="0.1" stroke-linecap="round" stroke-linejoin="round" />
	<path d="M1524 821.4H1513M1524 821.4L1521.56 823.8M1524 821.4L1521.56 819M1513 828.6H1524M1513 828.6L1515.44 831M1513 828.6L1515.44 826.2" stroke="#FF8CD0" stroke-opacity="0.1" stroke-linecap="round" stroke-linejoin="round" />
	<path d="M1343 821.4H1332M1343 821.4L1340.56 823.8M1343 821.4L1340.56 819M1332 828.6H1343M1332 828.6L1334.44 831M1332 828.6L1334.44 826.2" stroke="#FF8CD0" stroke-opacity="0.1" stroke-linecap="round" stroke-linejoin="round" />
	<path d="M1256 748.4H1245M1256 748.4L1253.56 750.8M1256 748.4L1253.56 746M1245 755.6H1256M1245 755.6L1247.44 758M1245 755.6L1247.44 753.2" stroke="#FF8CD0" stroke-opacity="0.1" stroke-linecap="round" stroke-linejoin="round" />
	<path d="M1277 685.2H1266M1277 685.2L1274.56 687.4M1277 685.2L1274.56 683M1266 691.8H1277M1266 691.8L1268.44 694M1266 691.8L1268.44 689.6" stroke="#FF8CD0" stroke-opacity="0.1" stroke-linecap="round" stroke-linejoin="round" />
	<path d="M1389 755.2H1378M1389 755.2L1386.56 757.4M1389 755.2L1386.56 753M1378 761.8H1389M1378 761.8L1380.44 764M1378 761.8L1380.44 759.6" stroke="#FF8CD0" stroke-opacity="0.1" stroke-linecap="round" stroke-linejoin="round" />
	<path d="M1454 659.2H1443M1454 659.2L1451.56 661.4M1454 659.2L1451.56 657M1443 665.8H1454M1443 665.8L1445.44 668M1443 665.8L1445.44 663.6" stroke="#FF8CD0" stroke-opacity="0.1" stroke-linecap="round" stroke-linejoin="round" />
	<path d="M1555 749.2H1544M1555 749.2L1552.56 751.4M1555 749.2L1552.56 747M1544 755.8H1555M1544 755.8L1546.44 758M1544 755.8L1546.44 753.6" stroke="#FF8CD0" stroke-opacity="0.1" stroke-linecap="round" stroke-linejoin="round" />
	<path d="M1487 842.2H1476M1487 842.2L1484.56 844.4M1487 842.2L1484.56 840M1476 848.8H1487M1476 848.8L1478.44 851M1476 848.8L1478.44 846.6" stroke="#FF8CD0" stroke-opacity="0.1" stroke-linecap="round" stroke-linejoin="round" />
	<path d="M1306 842.2H1295M1306 842.2L1303.56 844.4M1306 842.2L1303.56 840M1295 848.8H1306M1295 848.8L1297.44 851M1295 848.8L1297.44 846.6" stroke="#FF8CD0" stroke-opacity="0.1" stroke-linecap="round" stroke-linejoin="round" />
	<path d="M1219 769.2H1208M1219 769.2L1216.56 771.4M1219 769.2L1216.56 767M1208 775.8H1219M1208 775.8L1210.44 778M1208 775.8L1210.44 773.6" stroke="#FF8CD0" stroke-opacity="0.1" stroke-linecap="round" stroke-linejoin="round" />
	<path d="M1295 710.4H1284M1295 710.4L1292.56 712.8M1295 710.4L1292.56 708M1284 717.6H1295M1284 717.6L1286.44 720M1284 717.6L1286.44 715.2" stroke="#FF8CD0" stroke-opacity="0.1" stroke-linecap="round" stroke-linejoin="round" />
	<path d="M1407 780.4H1396M1407 780.4L1404.56 782.8M1407 780.4L1404.56 778M1396 787.6H1407M1396 787.6L1398.44 790M1396 787.6L1398.44 785.2" stroke="#FF8CD0" stroke-opacity="0.1" stroke-linecap="round" stroke-linejoin="round" />
	<path d="M1472 684.4H1461M1472 684.4L1469.56 686.8M1472 684.4L1469.56 682M1461 691.6H1472M1461 691.6L1463.44 694M1461 691.6L1463.44 689.2" stroke="#FF8CD0" stroke-opacity="0.1" stroke-linecap="round" stroke-linejoin="round" />
	<path d="M1573 774.4H1562M1573 774.4L1570.56 776.8M1573 774.4L1570.56 772M1562 781.6H1573M1562 781.6L1564.44 784M1562 781.6L1564.44 779.2" stroke="#FF8CD0" stroke-opacity="0.1" stroke-linecap="round" stroke-linejoin="round" />
	<path d="M1505 867.4H1494M1505 867.4L1502.56 869.8M1505 867.4L1502.56 865M1494 874.6H1505M1494 874.6L1496.44 877M1494 874.6L1496.44 872.2" stroke="#FF8CD0" stroke-opacity="0.1" stroke-linecap="round" stroke-linejoin="round" />
	<path d="M1324 867.4H1313M1324 867.4L1321.56 869.8M1324 867.4L1321.56 865M1313 874.6H1324M1313 874.6L1315.44 877M1313 874.6L1315.44 872.2" stroke="#FF8CD0" stroke-opacity="0.1" stroke-linecap="round" stroke-linejoin="round" />
	<path d="M1237 794.4H1226M1237 794.4L1234.56 796.8M1237 794.4L1234.56 792M1226 801.6H1237M1226 801.6L1228.44 804M1226 801.6L1228.44 799.2" stroke="#FF8CD0" stroke-opacity="0.1" stroke-linecap="round" stroke-linejoin="round" />
	<path d="M1342 698.4H1331M1342 698.4L1339.56 700.8M1342 698.4L1339.56 696M1331 705.6H1342M1331 705.6L1333.44 708M1331 705.6L1333.44 703.2" stroke="#FF8CD0" stroke-opacity="0.1" stroke-linecap="round" stroke-linejoin="round" />
	<path d="M1454 768.4H1443M1454 768.4L1451.56 770.8M1454 768.4L1451.56 766M1443 775.6H1454M1443 775.6L1445.44 778M1443 775.6L1445.44 773.2" stroke="#FF8CD0" stroke-opacity="0.1" stroke-linecap="round" stroke-linejoin="round" />
	<path d="M1519 672.4H1508M1519 672.4L1516.56 674.8M1519 672.4L1516.56 670M1508 679.6H1519M1508 679.6L1510.44 682M1508 679.6L1510.44 677.2" stroke="#FF8CD0" stroke-opacity="0.1" stroke-linecap="round" stroke-linejoin="round" />
	<path d="M1620 762.4H1609M1620 762.4L1617.56 764.8M1620 762.4L1617.56 760M1609 769.6H1620M1609 769.6L1611.44 772M1609 769.6L1611.44 767.2" stroke="#FF8CD0" stroke-opacity="0.1" stroke-linecap="round" stroke-linejoin="round" />
	<path d="M1552 855.4H1541M1552 855.4L1549.56 857.8M1552 855.4L1549.56 853M1541 862.6H1552M1541 862.6L1543.44 865M1541 862.6L1543.44 860.2" stroke="#FF8CD0" stroke-opacity="0.1" stroke-linecap="round" stroke-linejoin="round" />
	<path d="M1371 855.4H1360M1371 855.4L1368.56 857.8M1371 855.4L1368.56 853M1360 862.6H1371M1360 862.6L1362.44 865M1360 862.6L1362.44 860.2" stroke="#FF8CD0" stroke-opacity="0.1" stroke-linecap="round" stroke-linejoin="round" />
	<path d="M1284 782.4H1273M1284 782.4L1281.56 784.8M1284 782.4L1281.56 780M1273 789.6H1284M1273 789.6L1275.44 792M1273 789.6L1275.44 787.2" stroke="#FF8CD0" stroke-opacity="0.1" stroke-linecap="round" stroke-linejoin="round" />
	<path d="M875 952.4H864M875 952.4L872.556 954.8M875 952.4L872.556 950M864 959.6H875M864 959.6L866.444 962M864 959.6L866.444 957.2" stroke="#FF8CD0" stroke-opacity="0.1" stroke-linecap="round" stroke-linejoin="round" />
	<path d="M987 1022.4H976M987 1022.4L984.556 1024.8M987 1022.4L984.556 1020M976 1029.6H987M976 1029.6L978.444 1032M976 1029.6L978.444 1027.2" stroke="#FF8CD0" stroke-opacity="0.1" stroke-linecap="round" stroke-linejoin="round" />
	<path d="M1052 926.4H1041M1052 926.4L1049.56 928.8M1052 926.4L1049.56 924M1041 933.6H1052M1041 933.6L1043.44 936M1041 933.6L1043.44 931.2" stroke="#FF8CD0" stroke-opacity="0.1" stroke-linecap="round" stroke-linejoin="round" />
	<path d="M1153 1016.4H1142M1153 1016.4L1150.56 1018.8M1153 1016.4L1150.56 1014M1142 1023.6H1153M1142 1023.6L1144.44 1026M1142 1023.6L1144.44 1021.2" stroke="#FF8CD0" stroke-opacity="0.1" stroke-linecap="round" stroke-linejoin="round" />
	<path d="M1085 1109.4H1074M1085 1109.4L1082.56 1111.8M1085 1109.4L1082.56 1107M1074 1116.6H1085M1074 1116.6L1076.44 1119M1074 1116.6L1076.44 1114.2" stroke="#FF8CD0" stroke-opacity="0.1" stroke-linecap="round" stroke-linejoin="round" />
	<path d="M904 1109.4H893M904 1109.4L901.556 1111.8M904 1109.4L901.556 1107M893 1116.6H904M893 1116.6L895.444 1119M893 1116.6L895.444 1114.2" stroke="#FF8CD0" stroke-opacity="0.1" stroke-linecap="round" stroke-linejoin="round" />
	<path d="M817 1036.4H806M817 1036.4L814.556 1038.8M817 1036.4L814.556 1034M806 1043.6H817M806 1043.6L808.444 1046M806 1043.6L808.444 1041.2" stroke="#FF8CD0" stroke-opacity="0.1" stroke-linecap="round" stroke-linejoin="round" />
	<path d="M838 973.2H827M838 973.2L835.556 975.4M838 973.2L835.556 971M827 979.8H838M827 979.8L829.444 982M827 979.8L829.444 977.6" stroke="#FF8CD0" stroke-opacity="0.1" stroke-linecap="round" stroke-linejoin="round" />
	<path d="M950 1043.2H939M950 1043.2L947.556 1045.4M950 1043.2L947.556 1041M939 1049.8H950M939 1049.8L941.444 1052M939 1049.8L941.444 1047.6" stroke="#FF8CD0" stroke-opacity="0.1" stroke-linecap="round" stroke-linejoin="round" />
	<path d="M1015 947.2H1004M1015 947.2L1012.56 949.4M1015 947.2L1012.56 945M1004 953.8H1015M1004 953.8L1006.44 956M1004 953.8L1006.44 951.6" stroke="#FF8CD0" stroke-opacity="0.1" stroke-linecap="round" stroke-linejoin="round" />
	<path d="M1116 1037.2H1105M1116 1037.2L1113.56 1039.4M1116 1037.2L1113.56 1035M1105 1043.8H1116M1105 1043.8L1107.44 1046M1105 1043.8L1107.44 1041.6" stroke="#FF8CD0" stroke-opacity="0.1" stroke-linecap="round" stroke-linejoin="round" />
	<path d="M1048 1130.2H1037M1048 1130.2L1045.56 1132.4M1048 1130.2L1045.56 1128M1037 1136.8H1048M1037 1136.8L1039.44 1139M1037 1136.8L1039.44 1134.6" stroke="#FF8CD0" stroke-opacity="0.1" stroke-linecap="round" stroke-linejoin="round" />
	<path d="M867 1130.2H856M867 1130.2L864.556 1132.4M867 1130.2L864.556 1128M856 1136.8H867M856 1136.8L858.444 1139M856 1136.8L858.444 1134.6" stroke="#FF8CD0" stroke-opacity="0.1" stroke-linecap="round" stroke-linejoin="round" />
	<path d="M780 1057.2H769M780 1057.2L777.556 1059.4M780 1057.2L777.556 1055M769 1063.8H780M769 1063.8L771.444 1066M769 1063.8L771.444 1061.6" stroke="#FF8CD0" stroke-opacity="0.1" stroke-linecap="round" stroke-linejoin="round" />
	<path d="M856 998.4H845M856 998.4L853.556 1000.8M856 998.4L853.556 996M845 1005.6H856M845 1005.6L847.444 1008M845 1005.6L847.444 1003.2" stroke="#FF8CD0" stroke-opacity="0.1" stroke-linecap="round" stroke-linejoin="round" />
	<path d="M968 1068.4H957M968 1068.4L965.556 1070.8M968 1068.4L965.556 1066M957 1075.6H968M957 1075.6L959.444 1078M957 1075.6L959.444 1073.2" stroke="#FF8CD0" stroke-opacity="0.1" stroke-linecap="round" stroke-linejoin="round" />
	<path d="M1033 972.4H1022M1033 972.4L1030.56 974.8M1033 972.4L1030.56 970M1022 979.6H1033M1022 979.6L1024.44 982M1022 979.6L1024.44 977.2" stroke="#FF8CD0" stroke-opacity="0.1" stroke-linecap="round" stroke-linejoin="round" />
	<path d="M1134 1062.4H1123M1134 1062.4L1131.56 1064.8M1134 1062.4L1131.56 1060M1123 1069.6H1134M1123 1069.6L1125.44 1072M1123 1069.6L1125.44 1067.2" stroke="#FF8CD0" stroke-opacity="0.1" stroke-linecap="round" stroke-linejoin="round" />
	<path d="M1066 1155.4H1055M1066 1155.4L1063.56 1157.8M1066 1155.4L1063.56 1153M1055 1162.6H1066M1055 1162.6L1057.44 1165M1055 1162.6L1057.44 1160.2" stroke="#FF8CD0" stroke-opacity="0.1" stroke-linecap="round" stroke-linejoin="round" />
	<path d="M885 1155.4H874M885 1155.4L882.556 1157.8M885 1155.4L882.556 1153M874 1162.6H885M874 1162.6L876.444 1165M874 1162.6L876.444 1160.2" stroke="#FF8CD0" stroke-opacity="0.1" stroke-linecap="round" stroke-linejoin="round" />
	<path d="M798 1082.4H787M798 1082.4L795.556 1084.8M798 1082.4L795.556 1080M787 1089.6H798M787 1089.6L789.444 1092M787 1089.6L789.444 1087.2" stroke="#FF8CD0" stroke-opacity="0.1" stroke-linecap="round" stroke-linejoin="round" />
	<path d="M903 986.4H892M903 986.4L900.556 988.8M903 986.4L900.556 984M892 993.6H903M892 993.6L894.444 996M892 993.6L894.444 991.2" stroke="#FF8CD0" stroke-opacity="0.1" stroke-linecap="round" stroke-linejoin="round" />
	<path d="M1015 1056.4H1004M1015 1056.4L1012.56 1058.8M1015 1056.4L1012.56 1054M1004 1063.6H1015M1004 1063.6L1006.44 1066M1004 1063.6L1006.44 1061.2" stroke="#FF8CD0" stroke-opacity="0.1" stroke-linecap="round" stroke-linejoin="round" />
	<path d="M1080 960.4H1069M1080 960.4L1077.56 962.8M1080 960.4L1077.56 958M1069 967.6H1080M1069 967.6L1071.44 970M1069 967.6L1071.44 965.2" stroke="#FF8CD0" stroke-opacity="0.1" stroke-linecap="round" stroke-linejoin="round" />
	<path d="M1181 1050.4H1170M1181 1050.4L1178.56 1052.8M1181 1050.4L1178.56 1048M1170 1057.6H1181M1170 1057.6L1172.44 1060M1170 1057.6L1172.44 1055.2" stroke="#FF8CD0" stroke-opacity="0.1" stroke-linecap="round" stroke-linejoin="round" />
	<path d="M1113 1143.4H1102M1113 1143.4L1110.56 1145.8M1113 1143.4L1110.56 1141M1102 1150.6H1113M1102 1150.6L1104.44 1153M1102 1150.6L1104.44 1148.2" stroke="#FF8CD0" stroke-opacity="0.1" stroke-linecap="round" stroke-linejoin="round" />
	<path d="M932 1143.4H921M932 1143.4L929.556 1145.8M932 1143.4L929.556 1141M921 1150.6H932M921 1150.6L923.444 1153M921 1150.6L923.444 1148.2" stroke="#FF8CD0" stroke-opacity="0.1" stroke-linecap="round" stroke-linejoin="round" />
	<path d="M845 1070.4H834M845 1070.4L842.556 1072.8M845 1070.4L842.556 1068M834 1077.6H845M834 1077.6L836.444 1080M834 1077.6L836.444 1075.2" stroke="#FF8CD0" stroke-opacity="0.1" stroke-linecap="round" stroke-linejoin="round" />
	<path d="M1232 849.4H1221M1232 849.4L1229.56 851.8M1232 849.4L1229.56 847M1221 856.6H1232M1221 856.6L1223.44 859M1221 856.6L1223.44 854.2" stroke="#FF8CD0" stroke-opacity="0.1" stroke-linecap="round" stroke-linejoin="round" />
	<path d="M1344 919.4H1333M1344 919.4L1341.56 921.8M1344 919.4L1341.56 917M1333 926.6H1344M1333 926.6L1335.44 929M1333 926.6L1335.44 924.2" stroke="#FF8CD0" stroke-opacity="0.1" stroke-linecap="round" stroke-linejoin="round" />
	<path d="M1409 823.4H1398M1409 823.4L1406.56 825.8M1409 823.4L1406.56 821M1398 830.6H1409M1398 830.6L1400.44 833M1398 830.6L1400.44 828.2" stroke="#FF8CD0" stroke-opacity="0.1" stroke-linecap="round" stroke-linejoin="round" />
	<path d="M1510 913.4H1499M1510 913.4L1507.56 915.8M1510 913.4L1507.56 911M1499 920.6H1510M1499 920.6L1501.44 923M1499 920.6L1501.44 918.2" stroke="#FF8CD0" stroke-opacity="0.1" stroke-linecap="round" stroke-linejoin="round" />
	<path d="M1442 1006.4H1431M1442 1006.4L1439.56 1008.8M1442 1006.4L1439.56 1004M1431 1013.6H1442M1431 1013.6L1433.44 1016M1431 1013.6L1433.44 1011.2" stroke="#FF8CD0" stroke-opacity="0.1" stroke-linecap="round" stroke-linejoin="round" />
	<path d="M1261 1006.4H1250M1261 1006.4L1258.56 1008.8M1261 1006.4L1258.56 1004M1250 1013.6H1261M1250 1013.6L1252.44 1016M1250 1013.6L1252.44 1011.2" stroke="#FF8CD0" stroke-opacity="0.1" stroke-linecap="round" stroke-linejoin="round" />
	<path d="M1174 933.4H1163M1174 933.4L1171.56 935.8M1174 933.4L1171.56 931M1163 940.6H1174M1163 940.6L1165.44 943M1163 940.6L1165.44 938.2" stroke="#FF8CD0" stroke-opacity="0.1" stroke-linecap="round" stroke-linejoin="round" />
	<path d="M1195 870.2H1184M1195 870.2L1192.56 872.4M1195 870.2L1192.56 868M1184 876.8H1195M1184 876.8L1186.44 879M1184 876.8L1186.44 874.6" stroke="#FF8CD0" stroke-opacity="0.1" stroke-linecap="round" stroke-linejoin="round" />
	<path d="M1307 940.2H1296M1307 940.2L1304.56 942.4M1307 940.2L1304.56 938M1296 946.8H1307M1296 946.8L1298.44 949M1296 946.8L1298.44 944.6" stroke="#FF8CD0" stroke-opacity="0.1" stroke-linecap="round" stroke-linejoin="round" />
	<path d="M1372 844.2H1361M1372 844.2L1369.56 846.4M1372 844.2L1369.56 842M1361 850.8H1372M1361 850.8L1363.44 853M1361 850.8L1363.44 848.6" stroke="#FF8CD0" stroke-opacity="0.1" stroke-linecap="round" stroke-linejoin="round" />
	<path d="M1473 934.2H1462M1473 934.2L1470.56 936.4M1473 934.2L1470.56 932M1462 940.8H1473M1462 940.8L1464.44 943M1462 940.8L1464.44 938.6" stroke="#FF8CD0" stroke-opacity="0.1" stroke-linecap="round" stroke-linejoin="round" />
	<path d="M1405 1027.2H1394M1405 1027.2L1402.56 1029.4M1405 1027.2L1402.56 1025M1394 1033.8H1405M1394 1033.8L1396.44 1036M1394 1033.8L1396.44 1031.6" stroke="#FF8CD0" stroke-opacity="0.1" stroke-linecap="round" stroke-linejoin="round" />
	<path d="M1224 1027.2H1213M1224 1027.2L1221.56 1029.4M1224 1027.2L1221.56 1025M1213 1033.8H1224M1213 1033.8L1215.44 1036M1213 1033.8L1215.44 1031.6" stroke="#FF8CD0" stroke-opacity="0.1" stroke-linecap="round" stroke-linejoin="round" />
	<path d="M1137 954.2H1126M1137 954.2L1134.56 956.4M1137 954.2L1134.56 952M1126 960.8H1137M1126 960.8L1128.44 963M1126 960.8L1128.44 958.6" stroke="#FF8CD0" stroke-opacity="0.1" stroke-linecap="round" stroke-linejoin="round" />
	<path d="M1213 895.4H1202M1213 895.4L1210.56 897.8M1213 895.4L1210.56 893M1202 902.6H1213M1202 902.6L1204.44 905M1202 902.6L1204.44 900.2" stroke="#FF8CD0" stroke-opacity="0.1" stroke-linecap="round" stroke-linejoin="round" />
	<path d="M1325 965.4H1314M1325 965.4L1322.56 967.8M1325 965.4L1322.56 963M1314 972.6H1325M1314 972.6L1316.44 975M1314 972.6L1316.44 970.2" stroke="#FF8CD0" stroke-opacity="0.1" stroke-linecap="round" stroke-linejoin="round" />
	<path d="M1390 869.4H1379M1390 869.4L1387.56 871.8M1390 869.4L1387.56 867M1379 876.6H1390M1379 876.6L1381.44 879M1379 876.6L1381.44 874.2" stroke="#FF8CD0" stroke-opacity="0.1" stroke-linecap="round" stroke-linejoin="round" />
	<path d="M1491 959.4H1480M1491 959.4L1488.56 961.8M1491 959.4L1488.56 957M1480 966.6H1491M1480 966.6L1482.44 969M1480 966.6L1482.44 964.2" stroke="#FF8CD0" stroke-opacity="0.1" stroke-linecap="round" stroke-linejoin="round" />
	<path d="M1423 1052.4H1412M1423 1052.4L1420.56 1054.8M1423 1052.4L1420.56 1050M1412 1059.6H1423M1412 1059.6L1414.44 1062M1412 1059.6L1414.44 1057.2" stroke="#FF8CD0" stroke-opacity="0.1" stroke-linecap="round" stroke-linejoin="round" />
	<path d="M1242 1052.4H1231M1242 1052.4L1239.56 1054.8M1242 1052.4L1239.56 1050M1231 1059.6H1242M1231 1059.6L1233.44 1062M1231 1059.6L1233.44 1057.2" stroke="#FF8CD0" stroke-opacity="0.1" stroke-linecap="round" stroke-linejoin="round" />
	<path d="M1155 979.4H1144M1155 979.4L1152.56 981.8M1155 979.4L1152.56 977M1144 986.6H1155M1144 986.6L1146.44 989M1144 986.6L1146.44 984.2" stroke="#FF8CD0" stroke-opacity="0.1" stroke-linecap="round" stroke-linejoin="round" />
	<path d="M1260 883.4H1249M1260 883.4L1257.56 885.8M1260 883.4L1257.56 881M1249 890.6H1260M1249 890.6L1251.44 893M1249 890.6L1251.44 888.2" stroke="#FF8CD0" stroke-opacity="0.1" stroke-linecap="round" stroke-linejoin="round" />
	<path d="M1372 953.4H1361M1372 953.4L1369.56 955.8M1372 953.4L1369.56 951M1361 960.6H1372M1361 960.6L1363.44 963M1361 960.6L1363.44 958.2" stroke="#FF8CD0" stroke-opacity="0.1" stroke-linecap="round" stroke-linejoin="round" />
	<path d="M1437 857.4H1426M1437 857.4L1434.56 859.8M1437 857.4L1434.56 855M1426 864.6H1437M1426 864.6L1428.44 867M1426 864.6L1428.44 862.2" stroke="#FF8CD0" stroke-opacity="0.1" stroke-linecap="round" stroke-linejoin="round" />
	<path d="M1538 947.4H1527M1538 947.4L1535.56 949.8M1538 947.4L1535.56 945M1527 954.6H1538M1527 954.6L1529.44 957M1527 954.6L1529.44 952.2" stroke="#FF8CD0" stroke-opacity="0.1" stroke-linecap="round" stroke-linejoin="round" />
	<path d="M1470 1040.4H1459M1470 1040.4L1467.56 1042.8M1470 1040.4L1467.56 1038M1459 1047.6H1470M1459 1047.6L1461.44 1050M1459 1047.6L1461.44 1045.2" stroke="#FF8CD0" stroke-opacity="0.1" stroke-linecap="round" stroke-linejoin="round" />
	<path d="M1289 1040.4H1278M1289 1040.4L1286.56 1042.8M1289 1040.4L1286.56 1038M1278 1047.6H1289M1278 1047.6L1280.44 1050M1278 1047.6L1280.44 1045.2" stroke="#FF8CD0" stroke-opacity="0.1" stroke-linecap="round" stroke-linejoin="round" />
	<path d="M1202 967.4H1191M1202 967.4L1199.56 969.8M1202 967.4L1199.56 965M1191 974.6H1202M1191 974.6L1193.44 977M1191 974.6L1193.44 972.2" stroke="#FF8CD0" stroke-opacity="0.1" stroke-linecap="round" stroke-linejoin="round" />
	<defs>
		<filter id="filter0_f_0_1" x="0" y="0" width="1877.86" height="1499.62" filterUnits="userSpaceOnUse" color-interpolation-filters="sRGB">
			<feFlood flood-opacity="0" result="BackgroundImageFix" />
			<feBlend mode="normal" in="SourceGraphic" in2="BackgroundImageFix" result="shape" />
			<feGaussianBlur stdDeviation="200" result="effect1_foregroundBlur_0_1" />
		</filter>
	</defs>
</svg>
