<svg width="1200" height="308" viewBox="0 0 1200 308" fill="none" xmlns="http://www.w3.org/2000/svg">
<g clip-path="url(#clip0_21_3)">
<path opacity="0.04" d="M891.985 533.814C882.874 525.673 873.368 517.505 864.288 508.457C857.029 515.235 850.226 521.589 843.029 527.914C753.163 606.198 660.534 638.787 605.625 607.105C552.508 576.784 535.774 487.212 557.033 374.524C559.301 362.309 562.024 350.093 565.203 337.878C555.666 335.042 546.586 332.432 537.505 329.369C424.437 290.369 350 227.033 350 163.669C350 102.603 419.456 43.3227 527.939 5.31549C540.087 1.23114 552.903 -2.82486 566.083 -6.45538C563.046 -18.2263 560.647 -29.5433 558.369 -40.4917C535.653 -154.882 551.536 -246.269 605.109 -277.044C660.929 -309.633 753.558 -274.775 846.582 -192.889C852.018 -187.925 857.485 -182.48 863.376 -177.062C872.002 -185.203 880.171 -193.343 888.796 -200.576C976.87 -277.157 1064.46 -309.18 1118.03 -278.405C1173.85 -246.751 1190.22 -149.011 1165.26 -28.1819C1163.89 -20.467 1162.22 -13.2343 1160.27 -5.49103C1171.63 -2.3143 1182.96 1.28787 1193.41 4.9184C1304.17 42.9256 1375.9 102.205 1374.99 164.634C1374.99 228.423 1298.28 291.334 1180.62 330.248C1174.28 332.064 1167.93 334.333 1161.55 336.12C1164.28 345.168 1166.08 354.216 1167.9 363.264C1191.5 480.462 1173.33 576.387 1118.42 608.07C1104 616.177 1087.42 620.307 1070.59 619.982C1020.27 619.897 956.37 588.952 891.985 533.814ZM980.97 367.745C954.894 405.627 926.237 441.904 895.174 476.349C903.799 484.858 912.424 492.658 921.049 499.891C995.942 564.134 1064.94 588.13 1097.2 569.58C1107.05 561.658 1115.09 551.97 1120.86 541.091C1126.63 530.212 1130.01 518.363 1130.79 506.244C1137.34 461.341 1135.49 415.716 1125.32 371.404C1123.95 363.264 1122.28 355.123 1119.88 346.529C1074.15 356.527 1027.73 363.615 980.97 367.745ZM600.553 382.239C581.967 478.675 595.573 550.548 627.887 569.126C639.335 573.595 651.695 575.657 664.092 575.167C676.488 574.676 688.618 571.646 699.621 566.29C742.425 549.489 781.408 525.221 814.481 494.785C821.284 489.34 827.631 483.015 834.464 476.69C802.718 442.233 773.303 405.961 746.391 368.085C699.804 364.452 653.542 357.818 607.933 348.231C605.109 360.059 602.831 371.347 600.553 382.239ZM864.773 445.575C884.757 423.394 904.71 398.973 924.694 371.829C904.71 372.737 883.846 373.191 862.951 373.191C842.057 373.191 822.559 372.737 803.031 371.829C823.44 398.491 843.879 423.394 864.743 445.575H864.773ZM769.411 3.95401C752.161 28.8289 735.366 55.0085 719.483 82.6913C703.599 109.835 689.113 137.433 675.902 164.946C689.538 192.09 704.055 219.687 719.938 247.767C735.822 274.911 752.617 301.658 769.867 326.93C799.812 328.745 831.154 329.766 862.921 329.766C894.688 329.766 926.455 328.859 956.886 326.618C973.225 301.743 990.02 275.025 1005.93 247.427C1021.85 219.829 1036.79 191.778 1049.97 164.634C1036.79 137.943 1021.82 110.346 1005.93 82.7197C990.05 55.0936 973.256 28.8289 956.461 3.98239C926.091 1.71332 894.718 0.351868 862.951 0.351868C831.184 0.351868 799.842 1.68494 769.411 3.95401ZM619.626 306.65C650.772 313.294 682.296 318.285 714.047 321.598C703.144 304.409 692.271 287.193 681.824 269.097C671.832 251.454 661.84 233.812 652.76 216.17C639.609 246.916 628.707 277.294 619.626 306.65ZM1044.05 268.643C1033.6 286.739 1023.15 303.927 1012.74 320.69C1044.96 316.919 1076.94 311.484 1108.52 304.409C1098.66 273.865 1087.15 243.809 1074.02 214.355C1064.49 232.451 1054.5 250.547 1044.05 268.643ZM542 46.9248C449.401 79.5146 393.581 126.967 393.581 164.123C395.346 176.077 399.622 187.587 406.163 197.994C412.704 208.4 421.381 217.498 431.696 224.764C467.125 252.589 507.753 274.062 551.536 288.1C559.706 290.937 568.331 293.092 576.956 295.815C590.9 251.308 607.725 207.633 627.34 165.031C607.688 123.158 591.009 80.1227 577.411 36.2034C565.162 39.2667 553.358 42.8405 542 46.9248ZM1098.99 164.123C1119.13 206.184 1136.38 249.403 1150.62 293.518C1156.54 291.702 1162.43 289.887 1167.87 288.072C1269.09 254.603 1331.87 203.463 1332.2 163.641C1332.2 126.541 1274.1 78.5502 1179.23 45.9888C1169.69 42.8405 1159.27 39.6638 1148.86 36.487C1135.1 79.9631 1118.45 122.592 1098.99 164.123ZM1043.62 60.0571C1054.07 78.1531 1064.06 95.8236 1073.11 113.466C1085.72 84.6328 1096.63 55.1756 1105.79 25.2267C1074.96 18.23 1043.74 12.7952 1012.28 8.94601C1023.18 25.6522 1033.6 42.415 1043.59 60.0571H1043.62ZM620.081 24.858C629.192 53.8172 640.065 83.2302 652.76 113.522C661.871 95.8803 671.832 78.2382 681.824 60.5961C691.816 42.9539 702.233 25.7656 713.135 9.00275C680.457 13.002 649.601 18.4194 620.081 24.858ZM917.405 -167.447C909.691 -160.668 901.977 -153.435 894.233 -146.174C925.755 -112.153 954.726 -76.1399 980.939 -38.3928C1027.13 -34.2282 1072.95 -26.9673 1118.03 -16.6663C1119.85 -23.4452 1121.07 -30.2524 1122.59 -37.0313C1143.84 -141.097 1130.75 -220.742 1096.25 -240.625C1088.68 -244.595 1080.09 -246.556 1071.41 -246.298C1034.33 -246.468 977.416 -219.494 917.405 -167.532V-167.447ZM626.884 -239.49C594.662 -220.941 581.937 -146.742 601.009 -49.0007C603.287 -38.5913 605.565 -28.2102 608.267 -17.347C653.409 -27.2691 699.207 -34.3757 745.358 -38.6197C771.666 -76.4142 800.792 -112.431 832.52 -146.401C827.54 -151.393 822.073 -155.903 817.092 -160.441C753.923 -216.232 693.182 -245.674 653.519 -245.674C644.197 -245.971 634.972 -243.829 626.884 -239.49ZM923.752 -42.2218C905.032 -67.5187 884.836 -91.8347 863.255 -115.059C842.846 -92.9075 822.407 -68.4581 802.515 -42.2218C822.498 -43.1295 842.451 -43.5833 862.891 -43.5833C883.33 -43.5833 903.799 -43.2146 923.783 -42.2218H923.752ZM772.145 165.938C771.719 154.309 773.755 142.716 778.136 131.823C782.516 120.929 789.156 110.951 797.673 102.458C806.191 93.9661 816.419 87.127 827.772 82.3333C839.125 77.5395 851.379 74.8852 863.832 74.5226C888.959 75.322 912.721 85.3942 929.908 102.531C947.096 119.667 956.306 142.47 955.519 165.938C956.33 189.426 947.127 212.255 929.93 229.411C912.734 246.567 888.95 256.647 863.802 257.439C851.342 257.077 839.081 254.419 827.724 249.62C816.367 244.821 806.136 237.973 797.62 229.472C789.104 220.97 782.469 210.981 778.097 200.078C773.726 189.175 771.703 177.573 772.145 165.938Z" fill="#FF7AC8"/>
<g opacity="0.5" filter="url(#filter0_f_21_3)">
<path d="M219.248 -227.362C219.248 -64.9834 70.1965 66.6506 -113.668 66.6506C-297.533 66.6506 -446.585 -64.9834 -446.585 -227.362C-446.585 -389.741 -297.533 -521.375 -113.668 -521.375C70.1965 -521.375 219.248 -389.741 219.248 -227.362Z" fill="#FF7AC8"/>
<path d="M-239.361 -369.198C-239.361 -275.361 -334.42 -199.291 -451.681 -199.291C-568.941 -199.291 -664 -275.361 -664 -369.198C-664 -463.035 -568.941 -539.105 -451.681 -539.105C-334.42 -539.105 -239.361 -463.035 -239.361 -369.198Z" fill="#50E1C7"/>
<path d="M1910 620.139C1910 782.518 1760.95 914.152 1577.08 914.152C1393.22 914.152 1244.17 782.518 1244.17 620.139C1244.17 457.76 1393.22 326.126 1577.08 326.126C1760.95 326.126 1910 457.76 1910 620.139Z" fill="#FF7AC8"/>
<path d="M1451.39 478.304C1451.39 572.141 1356.33 648.211 1239.07 648.211C1121.81 648.211 1026.75 572.141 1026.75 478.304C1026.75 384.467 1121.81 308.397 1239.07 308.397C1356.33 308.397 1451.39 384.467 1451.39 478.304Z" fill="#50E1C7"/>
</g>
<path d="M892.033 -0.550472H877.132M892.033 -0.550472L888.721 2.42957M892.033 -0.550472L888.721 -3.53052M877.132 8.38966H892.033M877.132 8.38966L880.443 11.3697M877.132 8.38966L880.443 5.40962" stroke="#FF8CD0" stroke-opacity="0.1" stroke-linecap="round" stroke-linejoin="round"/>
<path d="M646.856 -0.550472H631.956M646.856 -0.550472L643.545 2.42957M646.856 -0.550472L643.545 -3.53052M631.956 8.38966H646.856M631.956 8.38966L635.267 11.3697M631.956 8.38966L635.267 5.40962" stroke="#FF8CD0" stroke-opacity="0.1" stroke-linecap="round" stroke-linejoin="round"/>
<path d="M916.415 33.5846H901.515M916.415 33.5846L913.104 36.8355M916.415 33.5846L913.104 30.3336M901.515 43.3375H916.415M901.515 43.3375L904.826 46.5884M901.515 43.3375L904.826 40.0865" stroke="#FF8CD0" stroke-opacity="0.1" stroke-linecap="round" stroke-linejoin="round"/>
<path d="M671.239 33.5846H656.338M671.239 33.5846L667.927 36.8355M671.239 33.5846L667.927 30.3336M656.338 43.3375H671.239M656.338 43.3375L659.65 46.5884M656.338 43.3375L659.65 40.0865" stroke="#FF8CD0" stroke-opacity="0.1" stroke-linecap="round" stroke-linejoin="round"/>
<path d="M980.079 17.3298H965.179M980.079 17.3298L976.768 20.5808M980.079 17.3298L976.768 14.0789M965.179 27.0827H980.079M965.179 27.0827L968.49 30.3336M965.179 27.0827L968.49 23.8317" stroke="#FF8CD0" stroke-opacity="0.1" stroke-linecap="round" stroke-linejoin="round"/>
<path d="M734.903 17.3298H720.003M734.903 17.3298L731.592 20.5808M734.903 17.3298L731.592 14.0789M720.003 27.0827H734.903M720.003 27.0827L723.314 30.3336M720.003 27.0827L723.314 23.8317" stroke="#FF8CD0" stroke-opacity="0.1" stroke-linecap="round" stroke-linejoin="round"/>
<path d="M228.295 80.9945H213.395M228.295 80.9945L224.984 84.2454M228.295 80.9945L224.984 77.7435M213.395 90.7474H228.295M213.395 90.7474L216.706 93.9983M213.395 90.7474L216.706 87.4964" stroke="#FF8CD0" stroke-opacity="0.1" stroke-linecap="round" stroke-linejoin="round"/>
<path d="M453.153 72.8672H438.253M453.153 72.8672L449.842 76.1181M453.153 72.8672L449.842 69.6162M438.253 82.62H453.153M438.253 82.62L441.564 85.871M438.253 82.62L441.564 79.3691" stroke="#FF8CD0" stroke-opacity="0.1" stroke-linecap="round" stroke-linejoin="round"/>
<path d="M361.043 198.842H346.143M361.043 198.842L357.732 202.093M361.043 198.842L357.732 195.591M346.143 208.595H361.043M346.143 208.595L349.454 211.846M346.143 208.595L349.454 205.344" stroke="#FF8CD0" stroke-opacity="0.1" stroke-linecap="round" stroke-linejoin="round"/>
<path d="M115.867 198.842H100.966M115.867 198.842L112.555 202.093M115.867 198.842L112.555 195.591M100.966 208.595H115.867M100.966 208.595L104.277 211.846M100.966 208.595L104.277 205.344" stroke="#FF8CD0" stroke-opacity="0.1" stroke-linecap="round" stroke-linejoin="round"/>
<path d="M26.4652 14.3498H11.5649M26.4652 14.3498L23.154 17.3298M26.4652 14.3498L23.154 11.3698M11.5649 23.2899H26.4652M11.5649 23.2899L14.8761 26.27M11.5649 23.2899L14.8761 20.3099" stroke="#FF8CD0" stroke-opacity="0.1" stroke-linecap="round" stroke-linejoin="round"/>
<path d="M178.176 109.169H163.276M178.176 109.169L174.865 112.15M178.176 109.169L174.865 106.189M163.276 118.11H178.176M163.276 118.11L166.587 121.09M163.276 118.11L166.587 115.13" stroke="#FF8CD0" stroke-opacity="0.1" stroke-linecap="round" stroke-linejoin="round"/>
<path d="M403.034 101.042H388.134M403.034 101.042L399.723 104.022M403.034 101.042L399.723 98.062M388.134 109.982H403.034M388.134 109.982L391.445 112.962M388.134 109.982L391.445 107.002" stroke="#FF8CD0" stroke-opacity="0.1" stroke-linecap="round" stroke-linejoin="round"/>
<path d="M310.924 227.017H296.024M310.924 227.017L307.613 229.997M310.924 227.017L307.613 224.037M296.024 235.957H310.924M296.024 235.957L299.335 238.937M296.024 235.957L299.335 232.977" stroke="#FF8CD0" stroke-opacity="0.1" stroke-linecap="round" stroke-linejoin="round"/>
<path d="M65.7474 227.017H50.8472M65.7474 227.017L62.4362 229.997M65.7474 227.017L62.4362 224.037M50.8472 235.957H65.7474M50.8472 235.957L54.1583 238.937M50.8472 235.957L54.1583 232.977" stroke="#FF8CD0" stroke-opacity="0.1" stroke-linecap="round" stroke-linejoin="round"/>
<path d="M50.8472 48.485H35.947M50.8472 48.485L47.5361 51.7359M50.8472 48.485L47.5361 45.234M35.947 58.2378H50.8472M35.947 58.2378L39.2582 61.4888M35.947 58.2378L39.2582 54.9869" stroke="#FF8CD0" stroke-opacity="0.1" stroke-linecap="round" stroke-linejoin="round"/>
<path d="M202.559 143.305H187.658M202.559 143.305L199.248 146.556M202.559 143.305L199.248 140.054M187.658 153.057H202.559M187.658 153.057L190.97 156.308M187.658 153.057L190.97 149.806" stroke="#FF8CD0" stroke-opacity="0.1" stroke-linecap="round" stroke-linejoin="round"/>
<path d="M290.606 13.2662H275.705M290.606 13.2662L287.294 16.5172M290.606 13.2662L287.294 10.0153M275.705 23.0191H290.606M275.705 23.0191L279.016 26.27M275.705 23.0191L279.016 19.7681" stroke="#FF8CD0" stroke-opacity="0.1" stroke-linecap="round" stroke-linejoin="round"/>
<path d="M427.417 135.177H412.516M427.417 135.177L424.105 138.428M427.417 135.177L424.105 131.926M412.516 144.93H427.417M412.516 144.93L415.828 148.181M412.516 144.93L415.828 141.679" stroke="#FF8CD0" stroke-opacity="0.1" stroke-linecap="round" stroke-linejoin="round"/>
<path d="M335.306 261.152H320.406M335.306 261.152L331.995 264.403M335.306 261.152L331.995 257.901M320.406 270.905H335.306M320.406 270.905L323.717 274.156M320.406 270.905L323.717 267.654" stroke="#FF8CD0" stroke-opacity="0.1" stroke-linecap="round" stroke-linejoin="round"/>
<path d="M90.1297 261.152H75.2295M90.1297 261.152L86.8186 264.403M90.1297 261.152L86.8186 257.901M75.2295 270.905H90.1297M75.2295 270.905L78.5407 274.156M75.2295 270.905L78.5407 267.654" stroke="#FF8CD0" stroke-opacity="0.1" stroke-linecap="round" stroke-linejoin="round"/>
<path d="M114.512 32.2301H99.6116M114.512 32.2301L111.201 35.481M114.512 32.2301L111.201 28.9791M99.6116 41.983H114.512M99.6116 41.983L102.923 45.2339M99.6116 41.983L102.923 38.732" stroke="#FF8CD0" stroke-opacity="0.1" stroke-linecap="round" stroke-linejoin="round"/>
<path d="M266.223 127.05H251.323M266.223 127.05L262.912 130.301M266.223 127.05L262.912 123.799M251.323 136.803H266.223M251.323 136.803L254.634 140.054M251.323 136.803L254.634 133.552" stroke="#FF8CD0" stroke-opacity="0.1" stroke-linecap="round" stroke-linejoin="round"/>
<path d="M354.27 -2.98854H339.37M354.27 -2.98854L350.959 0.262414M354.27 -2.98854L350.959 -6.2395M339.37 6.76433H354.27M339.37 6.76433L342.681 10.0153M339.37 6.76433L342.681 3.51337" stroke="#FF8CD0" stroke-opacity="0.1" stroke-linecap="round" stroke-linejoin="round"/>
<path d="M491.081 118.922H476.181M491.081 118.922L487.77 122.173M491.081 118.922L487.77 115.671M476.181 128.675H491.081M476.181 128.675L479.492 131.926M476.181 128.675L479.492 125.424" stroke="#FF8CD0" stroke-opacity="0.1" stroke-linecap="round" stroke-linejoin="round"/>
<path d="M398.971 244.897H384.071M398.971 244.897L395.66 248.148M398.971 244.897L395.66 241.646M384.071 254.65H398.971M384.071 254.65L387.382 257.901M384.071 254.65L387.382 251.399" stroke="#FF8CD0" stroke-opacity="0.1" stroke-linecap="round" stroke-linejoin="round"/>
<path d="M153.794 244.897H138.894M153.794 244.897L150.483 248.148M153.794 244.897L150.483 241.646M138.894 254.65H153.794M138.894 254.65L142.205 257.901M138.894 254.65L142.205 251.399" stroke="#FF8CD0" stroke-opacity="0.1" stroke-linecap="round" stroke-linejoin="round"/>
<path d="M35.9471 146.014H21.0469M35.9471 146.014L32.6359 149.265M35.9471 146.014L32.6359 142.763M21.0469 155.767H35.9471M21.0469 155.767L24.358 159.017M21.0469 155.767L24.358 152.516" stroke="#FF8CD0" stroke-opacity="0.1" stroke-linecap="round" stroke-linejoin="round"/>
<path d="M664.466 124.341H649.566M664.466 124.341L661.155 127.592M664.466 124.341L661.155 121.09M649.566 134.093H664.466M649.566 134.093L652.877 137.344M649.566 134.093L652.877 130.843" stroke="#FF8CD0" stroke-opacity="0.1" stroke-linecap="round" stroke-linejoin="round"/>
<path d="M816.177 219.16H801.277M816.177 219.16L812.866 222.411M816.177 219.16L812.866 215.909M801.277 228.913H816.177M801.277 228.913L804.588 232.164M801.277 228.913L804.588 225.662" stroke="#FF8CD0" stroke-opacity="0.1" stroke-linecap="round" stroke-linejoin="round"/>
<path d="M904.224 89.1219H889.324M904.224 89.1219L900.913 92.3729M904.224 89.1219L900.913 85.871M889.324 98.8748H904.224M889.324 98.8748L892.635 102.126M889.324 98.8748L892.635 95.6238" stroke="#FF8CD0" stroke-opacity="0.1" stroke-linecap="round" stroke-linejoin="round"/>
<path d="M1041.03 211.033H1026.13M1041.03 211.033L1037.72 214.284M1041.03 211.033L1037.72 207.782M1026.13 220.786H1041.03M1026.13 220.786L1029.45 224.037M1026.13 220.786L1029.45 217.535" stroke="#FF8CD0" stroke-opacity="0.1" stroke-linecap="round" stroke-linejoin="round"/>
<path d="M585.901 238.124H571.001M585.901 238.124L582.59 241.375M585.901 238.124L582.59 234.873M571.001 247.877H585.901M571.001 247.877L574.312 251.128M571.001 247.877L574.312 244.626" stroke="#FF8CD0" stroke-opacity="0.1" stroke-linecap="round" stroke-linejoin="round"/>
<path d="M614.347 152.516H599.447M614.347 152.516L611.036 155.496M614.347 152.516L611.036 149.536M599.447 161.456H614.347M599.447 161.456L602.758 164.436M599.447 161.456L602.758 158.476" stroke="#FF8CD0" stroke-opacity="0.1" stroke-linecap="round" stroke-linejoin="round"/>
<path d="M766.058 247.335H751.158M766.058 247.335L762.747 250.315M766.058 247.335L762.747 244.355M751.158 256.275H766.058M751.158 256.275L754.469 259.255M751.158 256.275L754.469 253.295" stroke="#FF8CD0" stroke-opacity="0.1" stroke-linecap="round" stroke-linejoin="round"/>
<path d="M854.105 117.297H839.205M854.105 117.297L850.794 120.277M854.105 117.297L850.794 114.317M839.205 126.237H854.105M839.205 126.237L842.516 129.217M839.205 126.237L842.516 123.257" stroke="#FF8CD0" stroke-opacity="0.1" stroke-linecap="round" stroke-linejoin="round"/>
<path d="M990.916 239.208H976.016M990.916 239.208L987.605 242.188M990.916 239.208L987.605 236.228M976.016 248.148H990.916M976.016 248.148L979.327 251.128M976.016 248.148L979.327 245.168" stroke="#FF8CD0" stroke-opacity="0.1" stroke-linecap="round" stroke-linejoin="round"/>
<path d="M535.782 266.299H520.882M535.782 266.299L532.471 269.279M535.782 266.299L532.471 263.319M520.882 275.239H535.782M520.882 275.239L524.193 278.219M520.882 275.239L524.193 272.259" stroke="#FF8CD0" stroke-opacity="0.1" stroke-linecap="round" stroke-linejoin="round"/>
<path d="M638.729 186.651H623.829M638.729 186.651L635.418 189.902M638.729 186.651L635.418 183.4M623.829 196.404H638.729M623.829 196.404L627.14 199.655M623.829 196.404L627.14 193.153" stroke="#FF8CD0" stroke-opacity="0.1" stroke-linecap="round" stroke-linejoin="round"/>
<path d="M790.441 281.47H775.54M790.441 281.47L787.129 284.721M790.441 281.47L787.129 278.219M775.54 291.223H790.441M775.54 291.223L778.851 294.474M775.54 291.223L778.851 287.972" stroke="#FF8CD0" stroke-opacity="0.1" stroke-linecap="round" stroke-linejoin="round"/>
<path d="M878.487 151.432H863.587M878.487 151.432L875.176 154.683M878.487 151.432L875.176 148.181M863.587 161.185H878.487M863.587 161.185L866.898 164.436M863.587 161.185L866.898 157.934" stroke="#FF8CD0" stroke-opacity="0.1" stroke-linecap="round" stroke-linejoin="round"/>
<path d="M1015.3 273.343H1000.4M1015.3 273.343L1011.99 276.594M1015.3 273.343L1011.99 270.092M1000.4 283.096H1015.3M1000.4 283.096L1003.71 286.347M1000.4 283.096L1003.71 279.845" stroke="#FF8CD0" stroke-opacity="0.1" stroke-linecap="round" stroke-linejoin="round"/>
<path d="M560.164 300.434H545.264M560.164 300.434L556.853 303.685M560.164 300.434L556.853 297.183M545.264 310.187H560.164M545.264 310.187L548.575 313.438M545.264 310.187L548.575 306.936" stroke="#FF8CD0" stroke-opacity="0.1" stroke-linecap="round" stroke-linejoin="round"/>
<path d="M702.394 170.396H687.493M702.394 170.396L699.082 173.647M702.394 170.396L699.082 167.145M687.493 180.149H702.394M687.493 180.149L690.805 183.4M687.493 180.149L690.805 176.898" stroke="#FF8CD0" stroke-opacity="0.1" stroke-linecap="round" stroke-linejoin="round"/>
<path d="M854.105 265.215H839.205M854.105 265.215L850.794 268.466M854.105 265.215L850.794 261.965M839.205 274.968H854.105M839.205 274.968L842.516 278.219M839.205 274.968L842.516 271.717" stroke="#FF8CD0" stroke-opacity="0.1" stroke-linecap="round" stroke-linejoin="round"/>
<path d="M942.152 135.177H927.252M942.152 135.177L938.841 138.428M942.152 135.177L938.841 131.926M927.252 144.93H942.152M927.252 144.93L930.563 148.181M927.252 144.93L930.563 141.679" stroke="#FF8CD0" stroke-opacity="0.1" stroke-linecap="round" stroke-linejoin="round"/>
<path d="M1078.96 257.088H1064.06M1078.96 257.088L1075.65 260.339M1078.96 257.088L1075.65 253.837M1064.06 266.841H1078.96M1064.06 266.841L1067.37 270.092M1064.06 266.841L1067.37 263.59" stroke="#FF8CD0" stroke-opacity="0.1" stroke-linecap="round" stroke-linejoin="round"/>
<path d="M623.829 284.179H608.929M623.829 284.179L620.518 287.43M623.829 284.179L620.518 280.928M608.929 293.932H623.829M608.929 293.932L612.24 297.183M608.929 293.932L612.24 290.681" stroke="#FF8CD0" stroke-opacity="0.1" stroke-linecap="round" stroke-linejoin="round"/>
<path d="M1173.78 190.714H1158.88M1173.78 190.714L1170.47 193.965M1173.78 190.714L1170.47 187.463M1158.88 200.467H1173.78M1158.88 200.467L1162.19 203.718M1158.88 200.467L1162.19 197.216" stroke="#FF8CD0" stroke-opacity="0.1" stroke-linecap="round" stroke-linejoin="round"/>
<path d="M1202.23 105.106H1187.33M1202.23 105.106L1198.92 108.086M1202.23 105.106L1198.92 102.126M1187.33 114.046H1202.23M1187.33 114.046L1190.64 117.026M1187.33 114.046L1190.64 111.066" stroke="#FF8CD0" stroke-opacity="0.1" stroke-linecap="round" stroke-linejoin="round"/>
<path d="M1123.66 218.889H1108.76M1123.66 218.889L1120.35 221.869M1123.66 218.889L1120.35 215.909M1108.76 227.829H1123.66M1108.76 227.829L1112.07 230.81M1108.76 227.829L1112.07 224.849" stroke="#FF8CD0" stroke-opacity="0.1" stroke-linecap="round" stroke-linejoin="round"/>
<path d="M1148.05 253.024H1133.15M1148.05 253.024L1144.73 256.275M1148.05 253.024L1144.73 249.773M1133.15 262.777H1148.05M1133.15 262.777L1136.46 266.028M1133.15 262.777L1136.46 259.526" stroke="#FF8CD0" stroke-opacity="0.1" stroke-linecap="round" stroke-linejoin="round"/>
<path d="M1211.71 236.77H1196.81M1211.71 236.77L1208.4 240.021M1211.71 236.77L1208.4 233.519M1196.81 246.523H1211.71M1196.81 246.523L1200.12 249.773M1196.81 246.523L1200.12 243.272" stroke="#FF8CD0" stroke-opacity="0.1" stroke-linecap="round" stroke-linejoin="round"/>
<path d="M307.047 129.75V198H293.031V129.75H307.047ZM337.394 158.109V198H323.894V147.281H336.55L337.394 158.109ZM335.425 170.859H331.769C331.769 167.109 332.253 163.734 333.222 160.734C334.191 157.703 335.55 155.125 337.3 153C339.05 150.844 341.128 149.203 343.534 148.078C345.972 146.922 348.691 146.344 351.691 146.344C354.066 146.344 356.237 146.688 358.206 147.375C360.175 148.062 361.862 149.156 363.269 150.656C364.706 152.156 365.8 154.141 366.55 156.609C367.331 159.078 367.722 162.094 367.722 165.656V198H354.128V165.609C354.128 163.359 353.816 161.609 353.191 160.359C352.566 159.109 351.644 158.234 350.425 157.734C349.237 157.203 347.769 156.938 346.019 156.938C344.206 156.938 342.628 157.297 341.284 158.016C339.972 158.734 338.878 159.734 338.003 161.016C337.159 162.266 336.519 163.734 336.081 165.422C335.644 167.109 335.425 168.922 335.425 170.859ZM407.631 147.281V156.844H378.1V147.281H407.631ZM385.412 134.766H398.912V182.719C398.912 184.188 399.1 185.312 399.475 186.094C399.881 186.875 400.475 187.422 401.256 187.734C402.037 188.016 403.022 188.156 404.209 188.156C405.053 188.156 405.803 188.125 406.459 188.062C407.147 187.969 407.725 187.875 408.194 187.781L408.241 197.719C407.084 198.094 405.834 198.391 404.491 198.609C403.147 198.828 401.662 198.938 400.037 198.938C397.069 198.938 394.475 198.453 392.256 197.484C390.069 196.484 388.381 194.891 387.194 192.703C386.006 190.516 385.412 187.641 385.412 184.078V134.766ZM443.462 198.938C439.525 198.938 435.994 198.312 432.869 197.062C429.744 195.781 427.087 194.016 424.9 191.766C422.744 189.516 421.087 186.906 419.931 183.938C418.775 180.938 418.197 177.75 418.197 174.375V172.5C418.197 168.656 418.744 165.141 419.837 161.953C420.931 158.766 422.494 156 424.525 153.656C426.587 151.312 429.087 149.516 432.025 148.266C434.962 146.984 438.275 146.344 441.962 146.344C445.556 146.344 448.744 146.938 451.525 148.125C454.306 149.312 456.634 151 458.509 153.188C460.416 155.375 461.853 158 462.822 161.062C463.791 164.094 464.275 167.469 464.275 171.188V176.812H423.962V167.812H451.009V166.781C451.009 164.906 450.666 163.234 449.978 161.766C449.322 160.266 448.322 159.078 446.978 158.203C445.634 157.328 443.916 156.891 441.822 156.891C440.041 156.891 438.509 157.281 437.228 158.062C435.947 158.844 434.9 159.938 434.087 161.344C433.306 162.75 432.712 164.406 432.306 166.312C431.931 168.188 431.744 170.25 431.744 172.5V174.375C431.744 176.406 432.025 178.281 432.587 180C433.181 181.719 434.009 183.203 435.072 184.453C436.166 185.703 437.478 186.672 439.009 187.359C440.572 188.047 442.337 188.391 444.306 188.391C446.744 188.391 449.009 187.922 451.103 186.984C453.228 186.016 455.056 184.562 456.587 182.625L463.15 189.75C462.087 191.281 460.634 192.75 458.791 194.156C456.978 195.562 454.791 196.719 452.228 197.625C449.666 198.5 446.744 198.938 443.462 198.938ZM490.262 158.344V198H476.762V147.281H489.466L490.262 158.344ZM505.544 146.953L505.309 159.469C504.653 159.375 503.856 159.297 502.919 159.234C502.012 159.141 501.184 159.094 500.434 159.094C498.528 159.094 496.872 159.344 495.466 159.844C494.091 160.312 492.934 161.016 491.997 161.953C491.091 162.891 490.403 164.031 489.934 165.375C489.497 166.719 489.247 168.25 489.184 169.969L486.466 169.125C486.466 165.844 486.794 162.828 487.45 160.078C488.106 157.297 489.059 154.875 490.309 152.812C491.591 150.75 493.153 149.156 494.997 148.031C496.841 146.906 498.95 146.344 501.325 146.344C502.075 146.344 502.841 146.406 503.622 146.531C504.403 146.625 505.044 146.766 505.544 146.953ZM530.219 157.031V217.5H516.719V147.281H529.234L530.219 157.031ZM562.328 172.078V173.062C562.328 176.75 561.891 180.172 561.016 183.328C560.172 186.484 558.922 189.234 557.266 191.578C555.609 193.891 553.547 195.703 551.078 197.016C548.641 198.297 545.828 198.938 542.641 198.938C539.547 198.938 536.859 198.312 534.578 197.062C532.297 195.812 530.375 194.062 528.812 191.812C527.281 189.531 526.047 186.891 525.109 183.891C524.172 180.891 523.453 177.672 522.953 174.234V171.656C523.453 167.969 524.172 164.594 525.109 161.531C526.047 158.438 527.281 155.766 528.812 153.516C530.375 151.234 532.281 149.469 534.531 148.219C536.812 146.969 539.484 146.344 542.547 146.344C545.766 146.344 548.594 146.953 551.031 148.172C553.5 149.391 555.562 151.141 557.219 153.422C558.906 155.703 560.172 158.422 561.016 161.578C561.891 164.734 562.328 168.234 562.328 172.078ZM548.781 173.062V172.078C548.781 169.922 548.594 167.938 548.219 166.125C547.875 164.281 547.312 162.672 546.531 161.297C545.781 159.922 544.781 158.859 543.531 158.109C542.312 157.328 540.828 156.938 539.078 156.938C537.234 156.938 535.656 157.234 534.344 157.828C533.062 158.422 532.016 159.281 531.203 160.406C530.391 161.531 529.781 162.875 529.375 164.438C528.969 166 528.719 167.766 528.625 169.734V176.25C528.781 178.562 529.219 180.641 529.938 182.484C530.656 184.297 531.766 185.734 533.266 186.797C534.766 187.859 536.734 188.391 539.172 188.391C540.953 188.391 542.453 188 543.672 187.219C544.891 186.406 545.875 185.297 546.625 183.891C547.406 182.484 547.953 180.859 548.266 179.016C548.609 177.172 548.781 175.188 548.781 173.062ZM589.019 158.344V198H575.519V147.281H588.222L589.019 158.344ZM604.3 146.953L604.066 159.469C603.409 159.375 602.612 159.297 601.675 159.234C600.769 159.141 599.941 159.094 599.191 159.094C597.284 159.094 595.628 159.344 594.222 159.844C592.847 160.312 591.691 161.016 590.753 161.953C589.847 162.891 589.159 164.031 588.691 165.375C588.253 166.719 588.003 168.25 587.941 169.969L585.222 169.125C585.222 165.844 585.55 162.828 586.206 160.078C586.862 157.297 587.816 154.875 589.066 152.812C590.347 150.75 591.909 149.156 593.753 148.031C595.597 146.906 597.706 146.344 600.081 146.344C600.831 146.344 601.597 146.406 602.378 146.531C603.159 146.625 603.8 146.766 604.3 146.953ZM611.913 173.156V172.172C611.913 168.453 612.444 165.031 613.506 161.906C614.569 158.75 616.116 156.016 618.147 153.703C620.178 151.391 622.678 149.594 625.647 148.312C628.616 147 632.022 146.344 635.866 146.344C639.709 146.344 643.131 147 646.131 148.312C649.131 149.594 651.647 151.391 653.678 153.703C655.741 156.016 657.303 158.75 658.366 161.906C659.428 165.031 659.959 168.453 659.959 172.172V173.156C659.959 176.844 659.428 180.266 658.366 183.422C657.303 186.547 655.741 189.281 653.678 191.625C651.647 193.938 649.147 195.734 646.178 197.016C643.209 198.297 639.803 198.938 635.959 198.938C632.116 198.938 628.694 198.297 625.694 197.016C622.725 195.734 620.209 193.938 618.147 191.625C616.116 189.281 614.569 186.547 613.506 183.422C612.444 180.266 611.913 176.844 611.913 173.156ZM625.413 172.172V173.156C625.413 175.281 625.6 177.266 625.975 179.109C626.35 180.953 626.944 182.578 627.756 183.984C628.6 185.359 629.694 186.438 631.038 187.219C632.381 188 634.022 188.391 635.959 188.391C637.834 188.391 639.444 188 640.788 187.219C642.131 186.438 643.209 185.359 644.022 183.984C644.834 182.578 645.428 180.953 645.803 179.109C646.209 177.266 646.413 175.281 646.413 173.156V172.172C646.413 170.109 646.209 168.172 645.803 166.359C645.428 164.516 644.819 162.891 643.975 161.484C643.163 160.047 642.084 158.922 640.741 158.109C639.397 157.297 637.772 156.891 635.866 156.891C633.959 156.891 632.334 157.297 630.991 158.109C629.678 158.922 628.6 160.047 627.756 161.484C626.944 162.891 626.35 164.516 625.975 166.359C625.6 168.172 625.413 170.109 625.413 172.172ZM694.009 188.391C695.666 188.391 697.134 188.078 698.416 187.453C699.697 186.797 700.697 185.891 701.416 184.734C702.166 183.547 702.556 182.156 702.587 180.562H715.291C715.259 184.125 714.306 187.297 712.431 190.078C710.556 192.828 708.041 195 704.884 196.594C701.728 198.156 698.197 198.938 694.291 198.938C690.353 198.938 686.916 198.281 683.978 196.969C681.072 195.656 678.65 193.844 676.712 191.531C674.775 189.188 673.322 186.469 672.353 183.375C671.384 180.25 670.9 176.906 670.9 173.344V171.984C670.9 168.391 671.384 165.047 672.353 161.953C673.322 158.828 674.775 156.109 676.712 153.797C678.65 151.453 681.072 149.625 683.978 148.312C686.884 147 690.291 146.344 694.197 146.344C698.353 146.344 701.994 147.141 705.119 148.734C708.275 150.328 710.744 152.609 712.525 155.578C714.337 158.516 715.259 162 715.291 166.031H702.587C702.556 164.344 702.197 162.812 701.509 161.438C700.853 160.062 699.884 158.969 698.603 158.156C697.353 157.312 695.806 156.891 693.962 156.891C691.994 156.891 690.384 157.312 689.134 158.156C687.884 158.969 686.916 160.094 686.228 161.531C685.541 162.938 685.056 164.547 684.775 166.359C684.525 168.141 684.4 170.016 684.4 171.984V173.344C684.4 175.312 684.525 177.203 684.775 179.016C685.025 180.828 685.494 182.438 686.181 183.844C686.9 185.25 687.884 186.359 689.134 187.172C690.384 187.984 692.009 188.391 694.009 188.391ZM751.263 198.938C747.325 198.938 743.794 198.312 740.669 197.062C737.544 195.781 734.888 194.016 732.7 191.766C730.544 189.516 728.888 186.906 727.731 183.938C726.575 180.938 725.997 177.75 725.997 174.375V172.5C725.997 168.656 726.544 165.141 727.638 161.953C728.731 158.766 730.294 156 732.325 153.656C734.388 151.312 736.888 149.516 739.825 148.266C742.763 146.984 746.075 146.344 749.763 146.344C753.356 146.344 756.544 146.938 759.325 148.125C762.106 149.312 764.434 151 766.309 153.188C768.216 155.375 769.653 158 770.622 161.062C771.591 164.094 772.075 167.469 772.075 171.188V176.812H731.763V167.812H758.809V166.781C758.809 164.906 758.466 163.234 757.778 161.766C757.122 160.266 756.122 159.078 754.778 158.203C753.434 157.328 751.716 156.891 749.622 156.891C747.841 156.891 746.309 157.281 745.028 158.062C743.747 158.844 742.7 159.938 741.888 161.344C741.106 162.75 740.513 164.406 740.106 166.312C739.731 168.188 739.544 170.25 739.544 172.5V174.375C739.544 176.406 739.825 178.281 740.388 180C740.981 181.719 741.809 183.203 742.872 184.453C743.966 185.703 745.278 186.672 746.809 187.359C748.372 188.047 750.138 188.391 752.106 188.391C754.544 188.391 756.809 187.922 758.903 186.984C761.028 186.016 762.856 184.562 764.388 182.625L770.95 189.75C769.888 191.281 768.434 192.75 766.591 194.156C764.778 195.562 762.591 196.719 760.028 197.625C757.466 198.5 754.544 198.938 751.263 198.938ZM811.984 183.984C811.984 183.016 811.703 182.141 811.141 181.359C810.578 180.578 809.531 179.859 808 179.203C806.5 178.516 804.328 177.891 801.484 177.328C798.922 176.766 796.531 176.062 794.312 175.219C792.125 174.344 790.219 173.297 788.594 172.078C787 170.859 785.75 169.422 784.844 167.766C783.938 166.078 783.484 164.156 783.484 162C783.484 159.875 783.938 157.875 784.844 156C785.781 154.125 787.109 152.469 788.828 151.031C790.578 149.562 792.703 148.422 795.203 147.609C797.734 146.766 800.578 146.344 803.734 146.344C808.141 146.344 811.922 147.047 815.078 148.453C818.266 149.859 820.703 151.797 822.391 154.266C824.109 156.703 824.969 159.484 824.969 162.609H811.469C811.469 161.297 811.188 160.125 810.625 159.094C810.094 158.031 809.25 157.203 808.094 156.609C806.969 155.984 805.5 155.672 803.688 155.672C802.188 155.672 800.891 155.938 799.797 156.469C798.703 156.969 797.859 157.656 797.266 158.531C796.703 159.375 796.422 160.312 796.422 161.344C796.422 162.125 796.578 162.828 796.891 163.453C797.234 164.047 797.781 164.594 798.531 165.094C799.281 165.594 800.25 166.062 801.438 166.5C802.656 166.906 804.156 167.281 805.938 167.625C809.594 168.375 812.859 169.359 815.734 170.578C818.609 171.766 820.891 173.391 822.578 175.453C824.266 177.484 825.109 180.156 825.109 183.469C825.109 185.719 824.609 187.781 823.609 189.656C822.609 191.531 821.172 193.172 819.297 194.578C817.422 195.953 815.172 197.031 812.547 197.812C809.953 198.562 807.031 198.938 803.781 198.938C799.062 198.938 795.062 198.094 791.781 196.406C788.531 194.719 786.062 192.578 784.375 189.984C782.719 187.359 781.891 184.672 781.891 181.922H794.688C794.75 183.766 795.219 185.25 796.094 186.375C797 187.5 798.141 188.312 799.516 188.812C800.922 189.312 802.438 189.562 804.062 189.562C805.812 189.562 807.266 189.328 808.422 188.859C809.578 188.359 810.453 187.703 811.047 186.891C811.672 186.047 811.984 185.078 811.984 183.984ZM866.097 183.984C866.097 183.016 865.816 182.141 865.253 181.359C864.691 180.578 863.644 179.859 862.112 179.203C860.612 178.516 858.441 177.891 855.597 177.328C853.034 176.766 850.644 176.062 848.425 175.219C846.237 174.344 844.331 173.297 842.706 172.078C841.112 170.859 839.862 169.422 838.956 167.766C838.05 166.078 837.597 164.156 837.597 162C837.597 159.875 838.05 157.875 838.956 156C839.894 154.125 841.222 152.469 842.941 151.031C844.691 149.562 846.816 148.422 849.316 147.609C851.847 146.766 854.691 146.344 857.847 146.344C862.253 146.344 866.034 147.047 869.191 148.453C872.378 149.859 874.816 151.797 876.503 154.266C878.222 156.703 879.081 159.484 879.081 162.609H865.581C865.581 161.297 865.3 160.125 864.737 159.094C864.206 158.031 863.362 157.203 862.206 156.609C861.081 155.984 859.612 155.672 857.8 155.672C856.3 155.672 855.003 155.938 853.909 156.469C852.816 156.969 851.972 157.656 851.378 158.531C850.816 159.375 850.534 160.312 850.534 161.344C850.534 162.125 850.691 162.828 851.003 163.453C851.347 164.047 851.894 164.594 852.644 165.094C853.394 165.594 854.362 166.062 855.55 166.5C856.769 166.906 858.269 167.281 860.05 167.625C863.706 168.375 866.972 169.359 869.847 170.578C872.722 171.766 875.003 173.391 876.691 175.453C878.378 177.484 879.222 180.156 879.222 183.469C879.222 185.719 878.722 187.781 877.722 189.656C876.722 191.531 875.284 193.172 873.409 194.578C871.534 195.953 869.284 197.031 866.659 197.812C864.066 198.562 861.144 198.938 857.894 198.938C853.175 198.938 849.175 198.094 845.894 196.406C842.644 194.719 840.175 192.578 838.487 189.984C836.831 187.359 836.003 184.672 836.003 181.922H848.8C848.862 183.766 849.331 185.25 850.206 186.375C851.112 187.5 852.253 188.312 853.628 188.812C855.034 189.312 856.55 189.562 858.175 189.562C859.925 189.562 861.378 189.328 862.534 188.859C863.691 188.359 864.566 187.703 865.159 186.891C865.784 186.047 866.097 185.078 866.097 183.984Z" fill="url(#paint0_linear_21_3)"/>
</g>
<defs>
<filter id="filter0_f_21_3" x="-1064" y="-939.105" width="3374" height="2253.26" filterUnits="userSpaceOnUse" color-interpolation-filters="sRGB">
<feFlood flood-opacity="0" result="BackgroundImageFix"/>
<feBlend mode="normal" in="SourceGraphic" in2="BackgroundImageFix" result="shape"/>
<feGaussianBlur stdDeviation="200" result="effect1_foregroundBlur_21_3"/>
</filter>
<linearGradient id="paint0_linear_21_3" x1="286" y1="165" x2="883" y2="165" gradientUnits="userSpaceOnUse">
<stop stop-color="#FF7AC8"/>
<stop offset="1" stop-color="#50E1C7"/>
</linearGradient>
<clipPath id="clip0_21_3">
<rect width="1200" height="308" rx="10" fill="white"/>
</clipPath>
</defs>
</svg>
