<svg width="131" height="100" viewBox="0 0 131 100" fill="none" xmlns="http://www.w3.org/2000/svg">
<path d="M76 23.4H65M76 23.4L73.5601 25.8M76 23.4L73.5601 21M65 30.6H76M65 30.6L67.4399 33M65 30.6L67.4399 28.2" stroke="#FF8CD0" stroke-opacity="0.1" stroke-linecap="round" stroke-linejoin="round"/>
<path d="M39 44.2H28M39 44.2L36.5601 46.4M39 44.2L36.5601 42M28 50.8H39M28 50.8L30.4399 53M28 50.8L30.4399 48.6" stroke="#FF8CD0" stroke-opacity="0.1" stroke-linecap="round" stroke-linejoin="round"/>
<path d="M57 69.4H46M57 69.4L54.5601 71.8M57 69.4L54.5601 67M46 76.6H57M46 76.6L48.4399 79M46 76.6L48.4399 74.2" stroke="#FF8CD0" stroke-opacity="0.1" stroke-linecap="round" stroke-linejoin="round"/>
<path d="M104 57.4H93M104 57.4L101.56 59.8M104 57.4L101.56 55M93 64.6H104M93 64.6L95.4399 67M93 64.6L95.4399 62.2" stroke="#FF8CD0" stroke-opacity="0.1" stroke-linecap="round" stroke-linejoin="round"/>
</svg>
